<svg width="0" height="0" class="hidden">
  <symbol xmlns="http://www.w3.org/2000/svg" viewBox="0 0 1100 316" id="car_icon">
    <path d="M123.867 74.8791C123.867 74.8791 128.567 73.922 136.892 72.257V45.735V37.379V13.885C136.892 6.67204 130.991 0.77002 123.777 0.77002H60.269L99.304 45.735H110.312V74.8791H123.867ZM214.4 135.08C233.165 135.08 250.585 140.823 265.01 150.64C253.226 144.676 239.913 141.294 225.802 141.294C177.771 141.294 138.834 180.231 138.834 228.262C138.834 250.785 147.396 271.308 161.443 286.754H148.712C133.598 270.643 124.325 248.988 124.325 225.155C124.325 175.408 164.653 135.08 214.4 135.08ZM786.821 216.074C783.339 215.121 778.826 213.889 773.494 212.441C779.674 168.718 817.229 135.081 862.658 135.081C883.01 135.081 901.78 141.837 916.862 153.22C903.965 145.651 888.955 141.293 872.921 141.293C829.029 141.294 792.751 173.816 786.821 216.074ZM787.414 244.072C790.402 260.33 797.886 275.014 808.564 286.756H796.97C796.969 286.755 796.969 286.755 796.969 286.754C785.161 274.167 776.943 258.186 773.903 240.436C778.715 241.726 783.236 242.943 787.414 244.072Z"></path>
    <path d="M312.77 228.262C312.77 250.785 304.208 271.308 290.161 286.754H796.969C785.161 274.167 776.943 258.186 773.903 240.436C717.103 225.206 620.469 200.027 586.531 195.645C537.286 189.286 580.568 279.907 484.172 251.569C412.999 230.645 340.162 207.518 306.892 196.84C310.673 206.588 312.77 217.177 312.77 228.262ZM2.9491 221.26C2.82605 257.26 32.245 286.754 68.217 286.754H124.676H126.818H148.712C133.598 270.643 124.325 248.988 124.325 225.155C124.325 175.408 164.653 135.08 214.4 135.08C233.165 135.08 250.585 140.823 265.01 150.64C270.524 153.431 275.704 156.783 280.465 160.637C310.13 170.187 387.952 195.016 463.86 217.332C560.255 245.671 515.201 155.444 564.446 161.802C603.255 166.813 724.035 199.015 773.494 212.442C779.674 168.719 817.229 135.082 862.658 135.082C883.01 135.082 901.78 141.838 916.862 153.221C942.598 168.324 959.889 196.266 959.889 228.262C959.889 250.785 951.327 271.308 937.28 286.754H1074.76C1089.01 286.754 1100.43 274.972 1099.99 260.733L1099.18 234.871C1098.55 214.432 1086.9 195.953 1068.74 186.549C1030.37 166.673 963.736 133.289 926.463 121.11C919.46 118.822 913.074 116.812 907.225 115.032C891.125 106.623 872.869 101.834 853.538 101.834H768.904C763.735 101.834 758.642 100.629 754.028 98.302C709.039 75.61 581.074 13.586 522.098 11.299C458.498 8.83304 198.218 59.9901 136.894 72.257C128.569 73.9221 123.869 74.8791 123.869 74.8791H110.315H13.025C5.91797 74.8791 0.0229492 80.586 0 87.694C-0.072998 110.459 11.6841 130.597 29.4231 142.342H15.9751C8.89209 142.342 2.9801 148.007 2.95007 155.09C2.85706 177.05 13.793 196.547 30.469 208.46H15.9751C8.87109 208.459 2.97314 214.158 2.9491 221.26ZM1024.94 231.587C1024.94 226.616 1029.01 222.55 1033.98 222.55H1078.52C1083.49 222.55 1087.56 226.617 1087.56 231.587V257.42C1087.56 262.39 1083.49 266.457 1078.52 266.457H1033.98C1029.01 266.457 1024.94 262.39 1024.94 257.42V231.587ZM984.005 170.797C984.622 163.957 991.91 159.847 998.138 162.741C1017.12 171.564 1053.57 188.985 1051.56 191.8C1048.85 195.596 994.067 185.834 987.016 181.495C984.104 179.704 983.597 175.323 984.005 170.797ZM354.604 50.179C391.434 44.139 484.267 31.451 525.959 32.643C565.234 33.766 670.405 75.9381 699.182 93.1681C703.833 95.9531 701.849 103.084 696.428 103.069C654.422 102.954 527.502 100.929 485.333 101.324C446.069 101.691 377.063 71.952 353.113 60.218C348.455 57.937 349.485 51.019 354.604 50.179ZM66.984 45.735C49.467 45.735 35.134 31.403 35.134 13.885C35.134 6.67204 41.035 0.77002 48.248 0.77002H60.27L99.305 45.735H66.984Z"></path>
    <path d="M786.821 216.074C783.339 215.121 778.826 213.889 773.494 212.441C724.035 199.015 603.255 166.813 564.446 161.801C515.201 155.442 560.255 245.669 463.86 217.331C387.951 195.015 310.13 170.187 280.465 160.636C292.171 170.11 301.356 182.561 306.893 196.838C340.162 207.516 413 230.643 484.173 251.567C580.568 279.906 537.286 189.284 586.532 195.643C620.47 200.025 717.104 225.204 773.904 240.434C778.715 241.724 783.237 242.942 787.415 244.07C786.472 238.94 785.955 233.662 785.955 228.26C785.954 224.124 786.262 220.059 786.821 216.074ZM998.138 162.741C1017.12 171.564 1053.57 188.985 1051.56 191.8C1048.85 195.596 994.067 185.834 987.016 181.495C984.105 179.704 983.598 175.323 984.006 170.797C984.622 163.957 991.91 159.847 998.138 162.741Z" fill="#E6E6E6"></path>
    <path d="M872.921 170.721C904.7 170.721 930.462 196.483 930.462 228.262C930.462 260.041 904.7 285.803 872.921 285.803C841.142 285.803 815.38 260.041 815.38 228.262C815.38 196.483 841.142 170.721 872.921 170.721ZM872.921 248.234C883.951 248.234 892.893 239.292 892.893 228.262C892.893 217.232 883.951 208.29 872.921 208.29C861.891 208.29 852.949 217.232 852.949 228.262C852.949 239.292 861.891 248.234 872.921 248.234ZM225.802 170.721C257.581 170.721 283.343 196.483 283.343 228.262C283.343 260.041 257.581 285.803 225.802 285.803C194.023 285.803 168.261 260.041 168.261 228.262C168.261 196.483 194.023 170.721 225.802 170.721ZM225.802 248.234C236.832 248.234 245.774 239.292 245.774 228.262C245.774 217.232 236.832 208.29 225.802 208.29C214.772 208.29 205.83 217.232 205.83 228.262C205.83 239.292 214.771 248.234 225.802 248.234Z" fill="#808080"></path>
    <path d="M353.113 60.219C377.063 71.953 446.069 101.691 485.333 101.325C527.502 100.931 654.423 102.955 696.428 103.07C701.849 103.085 703.832 95.953 699.182 93.169C670.405 75.939 565.234 33.766 525.959 32.644C484.267 31.452 391.434 44.14 354.604 50.18C349.485 51.019 348.455 57.937 353.113 60.219ZM1033.98 222.55H1078.52C1083.49 222.55 1087.56 226.617 1087.56 231.587V257.42C1087.56 262.39 1083.49 266.457 1078.52 266.457H1033.98C1029.01 266.457 1024.95 262.39 1024.95 257.42V231.587C1024.95 226.617 1029.01 222.55 1033.98 222.55ZM787.414 244.072C790.402 260.33 797.886 275.014 808.564 286.756C824.472 304.248 847.414 315.23 872.921 315.23C898.429 315.23 921.372 304.248 937.28 286.755C951.327 271.309 959.889 250.786 959.889 228.263C959.889 196.267 942.598 168.325 916.862 153.222C903.965 145.653 888.955 141.295 872.921 141.295C829.028 141.295 792.75 173.817 786.821 216.075C786.262 220.059 785.953 224.124 785.953 228.262C785.954 233.664 786.471 238.943 787.414 244.072ZM815.38 228.262C815.38 196.483 841.142 170.721 872.921 170.721C904.7 170.721 930.462 196.483 930.462 228.262C930.462 260.041 904.7 285.803 872.921 285.803C841.142 285.803 815.38 260.041 815.38 228.262ZM872.921 208.29C883.951 208.29 892.893 217.232 892.893 228.262C892.893 239.292 883.951 248.234 872.921 248.234C861.891 248.234 852.949 239.292 852.949 228.262C852.949 217.232 861.891 208.29 872.921 208.29ZM138.834 228.262C138.834 250.785 147.396 271.308 161.443 286.754C177.351 304.247 200.294 315.229 225.802 315.229C251.31 315.229 274.253 304.247 290.161 286.754C304.208 271.308 312.77 250.785 312.77 228.262C312.77 217.177 310.674 206.588 306.893 196.839C301.356 182.562 292.171 170.111 280.465 160.637C275.704 156.783 270.524 153.431 265.01 150.64C253.226 144.676 239.913 141.294 225.802 141.294C177.771 141.294 138.834 180.231 138.834 228.262ZM168.261 228.262C168.261 196.483 194.023 170.721 225.802 170.721C257.581 170.721 283.343 196.483 283.343 228.262C283.343 260.041 257.581 285.803 225.802 285.803C194.023 285.803 168.261 260.041 168.261 228.262ZM225.802 208.29C236.832 208.29 245.774 217.232 245.774 228.262C245.774 239.292 236.832 248.234 225.802 248.234C214.772 248.234 205.83 239.292 205.83 228.262C205.83 217.232 214.771 208.29 225.802 208.29Z" fill="#2F3236"></path>
  </symbol>
</svg>