<svg width="0" height="0" class="hidden">
  <symbol xmlns="http://www.w3.org/2000/svg" viewBox="0 0 1239 361" id="car_icon2">
    <path d="M26.6467 276.057H3.10425V288.139L26.6467 288.557V276.057Z" stroke="black" stroke-width="0.062504" stroke-miterlimit="10" stroke-linejoin="round"/>
<path d="M1225.43 255.389C1225.01 248.722 1224.6 242.056 1223.97 236.708C1223.35 231.362 1222.51 227.333 1220.29 223.862C1218.07 220.389 1214.46 217.472 1209.53 214.069C1204.6 210.667 1198.35 206.778 1190.29 202.403C1182.24 198.028 1172.38 193.167 1164.18 189.487C1155.99 185.806 1149.46 183.306 1143.09 180.604C1136.72 177.903 1130.5 175.001 1124.29 172.098L1144.6 214.598L1171.68 255.848L1219.6 249.598L1225.43 255.389Z" fill="#D0D4DF" stroke="black" stroke-width="0.062504" stroke-miterlimit="10" stroke-linejoin="round"/>
<path d="M391.598 321.472L159.598 316.472L158.598 235.472L202.598 167.472L263.598 147.472L351.598 159.472L422.598 209.472L413.598 270.472L391.598 321.472Z" fill="#32353E"/>
<path d="M1074.6 325.472L848.598 326.472L845.598 240.472L912.598 168.472L1022.6 164.472L1072.6 193.472L1087.6 278.472L1074.6 325.472Z" fill="#32353E"/>
<path d="M31.0217 287.932L3.0979 287.972L3.1039 301.682L24.5627 301.264L31.0217 287.932Z" fill="#2B2A2F" stroke="black" stroke-width="0.062504" stroke-miterlimit="10" stroke-linejoin="round"/>
<path d="M1078.76 142.056C1064.74 139.001 1050.71 135.944 1035.85 133.306C1020.99 130.667 1005.29 128.444 990.57 126.708C975.848 124.972 962.098 123.722 947.237 122.542C932.375 121.361 916.403 120.251 905.848 119.556C895.292 118.861 890.153 118.583 886.612 118.306C883.07 118.028 881.125 117.751 879.528 116.987C877.93 116.222 875.778 115.778 874.805 115.223C873.834 114.668 873.035 114.893 868.66 115.379C864.285 115.866 857.237 115.806 847.862 116.569C838.487 117.333 827.792 118.028 819.459 118.444C811.125 118.861 805.153 119.001 801.612 118.792C798.07 118.583 796.959 118.028 789.737 113.097C782.514 108.167 769.18 98.8607 752.584 87.7507C735.987 76.6394 716.125 63.7219 699.042 52.5419C681.959 41.3607 667.653 31.9169 660.153 26.6394C652.653 21.3607 651.959 20.2507 649.528 19.0694C647.098 17.8894 642.93 16.6394 634.112 14.6257C625.292 12.6107 611.82 9.83315 596.82 8.02815C581.82 6.2219 565.292 5.3894 549.389 5.3894C533.487 5.3894 518.209 6.2219 506.612 6.9169C495.014 7.6119 487.098 8.1669 475.43 9.62565C463.764 11.0832 448.348 13.4444 430.292 16.5007C412.237 19.5557 391.542 23.3057 380.084 25.5282C368.625 27.7507 366.403 28.4444 364.875 29.2082C363.348 29.9719 362.514 30.8057 361.055 31.8469C359.598 32.8894 357.514 34.1394 352.792 35.9444C348.07 37.7507 340.709 40.1107 331.612 42.7507C322.514 45.3894 311.68 48.3057 302.653 50.7357C293.625 53.1669 286.403 55.1107 266.473 61.2219C246.542 67.3332 213.903 77.6119 195.917 83.3757C177.93 89.1394 174.598 90.3894 172.584 90.8757C170.57 91.3619 169.875 91.0831 169.32 90.8056L167.93 90.0419C167.514 89.8332 167.098 89.6944 166.264 89.8332C165.43 89.9719 164.18 90.3894 162.514 90.5969C160.848 90.8057 158.764 90.8057 157.305 90.5281C155.848 90.2506 155.014 89.6944 153.487 89.9031C151.959 90.1119 149.737 91.0831 146.68 92.3331C143.625 93.5831 139.737 95.1118 134.389 96.8468C129.042 98.5831 122.237 100.528 113.973 102.612C105.709 104.694 95.9867 106.917 89.9442 108.306C83.903 109.694 81.5417 110.249 76.1255 112.611C70.7092 114.972 62.2367 119.139 55.153 125.111C48.0705 131.083 42.3755 138.861 36.7505 146.292C31.1255 153.722 25.5705 160.806 21.3342 167.056C17.098 173.306 14.1805 178.722 11.1955 183.862C8.20922 189.001 5.15297 193.862 3.20922 197.612C1.26422 201.362 0.430466 204.001 0.152966 207.403C-0.124534 210.806 0.152966 214.972 0.777966 219.278C1.40297 223.583 2.37547 228.028 3.34797 231.986C4.32047 235.944 5.29172 239.417 6.12547 242.889C6.95922 246.361 7.65297 249.833 8.13922 253.583C8.62547 257.333 8.90297 261.361 9.38922 265.528C9.87547 269.694 10.5705 274.001 11.5417 277.472C12.5142 280.944 13.7642 283.583 15.7092 285.319C17.653 287.056 20.2917 287.889 23.0705 288.167C25.848 288.444 28.7642 288.167 46.473 288.931C64.1805 289.694 96.6805 291.501 113.625 292.611C130.57 293.722 131.959 294.139 133.139 294.694C134.32 295.251 135.292 295.944 136.403 297.333C137.514 298.722 138.764 300.806 139.459 302.958C140.153 305.112 140.292 307.333 139.945 309.347C139.598 311.362 138.764 313.167 137.93 314.626C137.098 316.083 136.264 317.194 135.43 318.306H166.264L173.764 308.306C173.348 302.056 172.93 295.806 172.862 288.653C172.792 281.501 173.07 273.444 173.834 265.736C174.598 258.028 175.848 250.667 177.723 244.001C179.598 237.333 182.098 231.361 185.709 224.764C189.32 218.167 194.042 210.944 199.32 204.694C204.598 198.444 210.43 193.167 217.028 188.583C223.625 184.001 230.987 180.112 239.042 176.847C247.098 173.583 255.848 170.944 265.153 169.626C274.459 168.306 284.32 168.306 293.695 169.347C303.07 170.389 311.959 172.472 319.875 175.251C327.792 178.028 334.737 181.501 341.612 186.222C348.487 190.944 355.292 196.917 360.709 202.681C366.125 208.444 370.153 214.001 373.487 219.764C376.82 225.528 379.459 231.501 381.473 236.917C383.487 242.333 384.875 247.194 385.709 251.014C386.542 254.833 386.82 257.611 387.098 260.389C399.042 261.361 410.987 262.333 423.625 263.236C436.264 264.139 449.598 264.972 460.987 266.222C472.375 267.472 481.82 269.139 491.125 271.083C500.43 273.028 509.598 275.251 518.903 277.194C528.209 279.139 537.653 280.806 550.709 282.194C563.764 283.583 580.43 284.694 624.042 285.251C667.653 285.806 738.209 285.806 781.542 285.944C824.875 286.083 840.987 286.362 857.098 286.639C856.93 282.583 856.764 278.528 857.098 273.583C857.43 268.639 858.264 262.806 859.68 256.972C861.098 251.139 863.098 245.306 865.18 240.222C867.264 235.139 869.43 230.806 872.848 225.472C876.264 220.139 880.93 213.806 886.18 208.056C891.43 202.306 897.264 197.139 902.348 193.222C907.43 189.306 911.764 186.639 916.764 184.222C921.764 181.806 927.43 179.639 935.264 177.722C943.098 175.806 953.098 174.139 963.348 173.806C973.598 173.472 984.098 174.472 993.348 176.472C1002.6 178.472 1010.6 181.472 1017.85 184.889C1025.1 188.306 1031.6 192.139 1037.18 196.639C1042.76 201.139 1047.43 206.306 1051.68 212.056C1055.93 217.806 1059.76 224.139 1063.01 231.222C1066.26 238.306 1068.93 246.139 1070.85 254.056C1072.76 261.972 1073.93 269.972 1074.51 277.139C1075.1 284.306 1075.1 290.639 1074.68 297.222C1074.26 303.806 1073.43 310.639 1071.93 317.389C1070.43 324.139 1068.26 330.806 1066.1 337.472C1077.26 336.472 1088.43 335.472 1094.6 334.639C1100.76 333.806 1101.93 333.139 1103.6 332.806C1105.26 332.472 1107.43 332.472 1119.76 331.556C1132.1 330.639 1154.6 328.806 1169.68 327.472C1184.76 326.139 1192.43 325.306 1198.01 324.972C1203.6 324.639 1207.1 324.806 1210.51 324.556C1213.93 324.306 1217.26 323.639 1220.18 322.056C1223.1 320.472 1225.6 317.972 1226.68 316.639C1227.76 315.306 1227.43 315.139 1226.51 313.639C1225.6 312.139 1224.1 309.306 1223.35 307.556C1222.6 305.806 1222.6 305.139 1223.1 299.639C1223.6 294.139 1224.6 283.806 1225.1 275.056C1225.6 266.306 1225.6 259.139 1225.35 253.222C1225.1 247.306 1224.6 242.639 1223.43 239.139C1222.26 235.639 1220.43 233.306 1218.01 231.056C1215.6 228.806 1212.6 226.639 1209.35 224.972C1206.1 223.306 1202.6 222.139 1197.68 220.389C1192.76 218.639 1186.43 216.306 1179.6 213.306C1172.76 210.306 1165.43 206.639 1157.43 202.139C1149.43 197.639 1140.76 192.306 1132.76 186.889C1124.76 181.472 1117.43 175.972 1110.76 170.806C1104.1 165.639 1098.1 160.806 1093.26 156.639C1088.43 152.472 1084.76 148.972 1082.54 146.653C1080.32 144.333 1079.54 143.194 1078.76 142.056ZM274.598 98.3057C271.264 97.1945 267.93 96.0832 265.987 94.8332C264.042 93.5832 263.487 92.1945 263.487 90.8057C263.487 89.417 264.042 88.0282 265.292 86.222C266.542 84.417 268.487 82.1945 271.959 79.5557C275.43 76.917 280.43 73.862 290.57 69.5557C300.709 65.2507 315.987 59.6945 339.18 52.7507C362.375 45.8057 393.487 37.472 419.737 31.6395C445.987 25.8057 467.375 22.472 487.514 20.2507C507.653 18.0282 526.542 16.917 543.487 16.6395C560.43 16.3607 575.43 16.917 587.375 17.8895C599.32 18.8607 608.209 20.2507 616.542 22.472C624.875 24.6945 632.653 27.7507 643.07 33.3057C653.487 38.8607 666.542 46.917 681.68 56.917C696.82 66.917 714.042 78.862 729.32 89.5557C744.598 100.251 757.93 109.694 771.264 119.139C759.32 119.139 747.375 119.139 713.487 118.306C679.598 117.472 623.764 115.806 575.57 114.833C527.375 113.861 486.82 113.583 450.57 112.611C414.32 111.639 382.375 109.972 356.68 108.306C330.987 106.639 311.542 104.972 298.903 103.306C286.264 101.639 280.43 99.972 274.598 98.3057Z" fill="#F5F6FA"/>
<path d="M1078.76 142.056C1064.74 139.001 1050.71 135.944 1035.85 133.306C1020.99 130.667 1005.29 128.444 990.57 126.708C975.848 124.972 962.098 123.722 947.237 122.542C932.375 121.361 916.403 120.251 905.848 119.556C895.292 118.861 890.153 118.583 886.612 118.306C883.07 118.028 881.125 117.751 879.528 116.987C877.93 116.222 875.778 115.778 874.805 115.223C873.834 114.668 873.035 114.893 868.66 115.379C864.285 115.866 857.237 115.806 847.862 116.569C838.487 117.333 827.792 118.028 819.459 118.444C811.125 118.861 805.153 119.001 801.612 118.792C798.07 118.583 796.959 118.028 789.737 113.097C782.514 108.167 769.18 98.8607 752.584 87.7507C735.987 76.6394 716.125 63.7219 699.042 52.5419C681.959 41.3607 667.653 31.9169 660.153 26.6394C652.653 21.3607 651.959 20.2507 649.528 19.0694C647.098 17.8894 642.93 16.6394 634.112 14.6257C625.292 12.6107 611.82 9.83315 596.82 8.02815C581.82 6.2219 565.292 5.3894 549.389 5.3894C533.487 5.3894 518.209 6.2219 506.612 6.9169C495.014 7.6119 487.098 8.1669 475.43 9.62565C463.764 11.0832 448.348 13.4444 430.292 16.5007C412.237 19.5557 391.542 23.3057 380.084 25.5282C368.625 27.7507 366.403 28.4444 364.875 29.2082C363.348 29.9719 362.514 30.8057 361.055 31.8469C359.598 32.8894 357.514 34.1394 352.792 35.9444C348.07 37.7507 340.709 40.1107 331.612 42.7507C322.514 45.3894 311.68 48.3057 302.653 50.7357C293.625 53.1669 286.403 55.1107 266.473 61.2219C246.542 67.3332 213.903 77.6119 195.917 83.3757C177.93 89.1394 174.598 90.3894 172.584 90.8757C170.57 91.3619 169.875 91.0831 169.32 90.8056L167.93 90.0419C167.514 89.8332 167.098 89.6944 166.264 89.8332C165.43 89.9719 164.18 90.3894 162.514 90.5969C160.848 90.8057 158.764 90.8057 157.305 90.5281C155.848 90.2506 155.014 89.6944 153.487 89.9031C151.959 90.1119 149.737 91.0831 146.68 92.3331C143.625 93.5831 139.737 95.1118 134.389 96.8468C129.042 98.5831 122.237 100.528 113.973 102.612C105.709 104.694 95.9867 106.917 89.9442 108.306C83.903 109.694 81.5417 110.249 76.1255 112.611C70.7092 114.972 62.2367 119.139 55.153 125.111C48.0705 131.083 42.3755 138.861 36.7505 146.292C31.1255 153.723 25.5705 160.806 21.3342 167.056C17.098 173.306 14.1805 178.722 11.1955 183.862C8.20922 189.001 5.15297 193.862 3.20922 197.612C1.26422 201.362 0.430466 204.001 0.152966 207.403C-0.124534 210.806 0.152966 214.972 0.777966 219.278C1.40297 223.583 2.37547 228.028 3.34797 231.986C4.32047 235.944 5.29172 239.417 6.12547 242.889C6.95922 246.361 7.65297 249.833 8.13922 253.583C8.62547 257.333 8.90297 261.361 9.38922 265.528C9.87547 269.694 10.5705 274.001 11.5417 277.472C12.5142 280.944 13.7642 283.583 15.7092 285.319C17.653 287.056 20.2917 287.889 23.0705 288.167C25.848 288.444 28.7642 288.167 46.473 288.931C64.1805 289.694 96.6805 291.501 113.625 292.611C130.57 293.722 131.959 294.139 133.139 294.694C134.32 295.251 135.292 295.944 136.403 297.333C137.514 298.722 138.764 300.806 139.459 302.958C140.153 305.112 140.292 307.333 139.945 309.347C139.598 311.362 138.764 313.167 137.93 314.626C137.098 316.083 136.264 317.194 135.43 318.306H166.264L173.764 308.306C173.348 302.056 172.93 295.806 172.862 288.653C172.792 281.501 173.07 273.444 173.834 265.736C174.598 258.028 175.848 250.667 177.723 244.001C179.598 237.333 182.098 231.361 185.709 224.764C189.32 218.167 194.042 210.944 199.32 204.694C204.598 198.444 210.43 193.167 217.028 188.583C223.625 184.001 230.987 180.112 239.042 176.847C247.098 173.583 255.848 170.944 265.153 169.626C274.459 168.306 284.32 168.306 293.695 169.347C303.07 170.389 311.959 172.472 319.875 175.251C327.792 178.028 334.737 181.501 341.612 186.222C348.487 190.944 355.292 196.917 360.709 202.681C366.125 208.444 370.153 214.001 373.487 219.764C376.82 225.528 379.459 231.501 381.473 236.917C383.487 242.333 384.875 247.194 385.709 251.014C386.542 254.833 386.82 257.611 387.098 260.389C399.042 261.361 410.987 262.333 423.625 263.236C436.264 264.139 449.598 264.972 460.987 266.222C472.375 267.472 481.82 269.139 491.125 271.083C500.43 273.028 509.598 275.251 518.903 277.194C528.209 279.139 537.653 280.806 550.709 282.194C563.764 283.583 580.43 284.694 624.042 285.251C667.653 285.806 738.209 285.806 781.542 285.944C824.875 286.083 840.987 286.362 857.098 286.639C856.93 282.583 856.764 278.528 857.098 273.583C857.43 268.639 858.264 262.806 859.68 256.972C861.098 251.139 863.098 245.306 865.18 240.222C867.264 235.139 869.43 230.806 872.848 225.472C876.264 220.139 880.93 213.806 886.18 208.056C891.43 202.306 897.264 197.139 902.348 193.222C907.43 189.306 911.764 186.639 916.764 184.222C921.764 181.806 927.43 179.639 935.264 177.722C943.098 175.806 953.098 174.139 963.348 173.806C973.598 173.472 984.098 174.472 993.348 176.472C1002.6 178.472 1010.6 181.472 1017.85 184.889C1025.1 188.306 1031.6 192.139 1037.18 196.639C1042.76 201.139 1047.43 206.306 1051.68 212.056C1055.93 217.806 1059.76 224.139 1063.01 231.222C1066.26 238.306 1068.93 246.139 1070.85 254.056C1072.76 261.972 1073.93 269.972 1074.51 277.139C1075.1 284.306 1075.1 290.639 1074.68 297.222C1074.26 303.806 1073.43 310.639 1071.93 317.389C1070.43 324.139 1068.26 330.806 1066.1 337.472C1077.26 336.472 1088.43 335.472 1094.6 334.639C1100.76 333.806 1101.93 333.139 1103.6 332.806C1105.26 332.472 1107.43 332.472 1119.76 331.556C1132.1 330.639 1154.6 328.806 1169.68 327.472C1184.76 326.139 1192.43 325.306 1198.01 324.972C1203.6 324.639 1207.1 324.806 1210.51 324.556C1213.93 324.306 1217.26 323.639 1220.18 322.056C1223.1 320.472 1225.6 317.972 1226.68 316.639C1227.76 315.306 1227.43 315.139 1226.51 313.639C1225.6 312.139 1224.1 309.306 1223.35 307.556C1222.6 305.806 1222.6 305.139 1223.1 299.639C1223.6 294.139 1224.6 283.806 1225.1 275.056C1225.6 266.306 1225.6 259.139 1225.35 253.222C1225.1 247.306 1224.6 242.639 1223.43 239.139C1222.26 235.639 1220.43 233.306 1218.01 231.056C1215.6 228.806 1212.6 226.639 1209.35 224.972C1206.1 223.306 1202.6 222.139 1197.68 220.389C1192.76 218.639 1186.43 216.306 1179.6 213.306C1172.76 210.306 1165.43 206.639 1157.43 202.139C1149.43 197.639 1140.76 192.306 1132.76 186.889C1124.76 181.472 1117.43 175.972 1110.76 170.806C1104.1 165.639 1098.1 160.806 1093.26 156.639C1088.43 152.472 1084.76 148.972 1082.54 146.653C1080.32 144.333 1079.54 143.194 1078.76 142.056ZM274.598 98.3057C271.264 97.1945 267.93 96.0832 265.987 94.8332C264.042 93.5832 263.487 92.1945 263.487 90.8057C263.487 89.417 264.042 88.0282 265.292 86.222C266.542 84.417 268.487 82.1945 271.959 79.5557C275.43 76.917 280.43 73.862 290.57 69.5557C300.709 65.2507 315.987 59.6945 339.18 52.7507C362.375 45.8057 393.487 37.472 419.737 31.6395C445.987 25.8057 467.375 22.472 487.514 20.2507C507.653 18.0282 526.542 16.917 543.487 16.6395C560.43 16.3607 575.43 16.917 587.375 17.8895C599.32 18.8607 608.209 20.2507 616.542 22.472C624.875 24.6945 632.653 27.7507 643.07 33.3057C653.487 38.8607 666.542 46.917 681.68 56.917C696.82 66.917 714.042 78.862 729.32 89.5557C744.598 100.251 757.93 109.694 771.264 119.139C759.32 119.139 747.375 119.139 713.487 118.306C679.598 117.472 623.764 115.806 575.57 114.833C527.375 113.861 486.82 113.583 450.57 112.611C414.32 111.639 382.375 109.972 356.68 108.306C330.987 106.639 311.542 104.972 298.903 103.306C286.264 101.639 280.43 99.972 274.598 98.3057Z" stroke="black" stroke-width="0.050001" stroke-miterlimit="10" stroke-linejoin="round"/>
<path d="M64.0417 261.743C68.0004 261.569 75.3617 261.501 82.8267 261.674C90.2917 261.847 97.8617 262.264 105.118 262.612C112.375 262.958 119.32 263.237 123.903 263.653C128.487 264.069 130.709 264.626 132.479 265.284C134.25 265.944 135.57 266.708 136.75 267.784C137.93 268.862 138.973 270.251 139.875 271.813C140.778 273.376 141.542 275.112 142.028 277.091C142.514 279.069 142.723 281.292 142.514 283.237C142.305 285.181 141.68 286.847 140.397 288.444C139.112 290.042 137.167 291.569 135.188 292.472C133.209 293.376 131.195 293.653 125.5 293.618C119.805 293.583 110.43 293.236 99.0767 292.646C87.7229 292.056 74.3892 291.222 67.1667 290.563C59.9454 289.903 58.8342 289.417 57.6529 288.341C56.4729 287.264 55.2229 285.597 54.1804 283.966C53.1392 282.333 52.3054 280.736 51.8542 278.931C51.4029 277.126 51.3342 275.112 51.5079 273.618C51.6804 272.126 52.0979 271.153 52.9304 269.833C53.7642 268.514 55.0142 266.847 56.0904 265.563C57.1667 264.278 58.0704 263.376 58.7992 262.784C59.5279 262.194 60.0842 261.917 64.0417 261.743Z" stroke="black" stroke-width="0.062504" stroke-miterlimit="10" stroke-linejoin="round"/>
<path d="M385.153 263.862C384.598 267.194 384.598 274.001 384.042 282.472C383.487 290.944 382.375 301.083 381.612 307.612C380.848 314.139 380.43 317.056 380.362 320.042C380.292 323.028 380.57 326.083 380.987 327.751C381.403 329.417 381.959 329.694 401.68 329.487C421.403 329.278 460.292 328.583 486.959 327.958C513.625 327.333 528.07 326.778 550.5 326.292C572.93 325.806 603.348 325.389 627.584 325.389C651.82 325.389 669.875 325.806 689.042 326.501C708.209 327.194 728.487 328.167 747.237 329.139C765.987 330.112 783.209 331.083 797.653 331.639C812.098 332.194 823.764 332.333 831.959 332.542C840.153 332.751 844.875 333.028 848 332.889C851.125 332.751 852.653 332.194 853.903 331.014C855.153 329.833 856.125 328.028 856.542 320.597C856.959 313.167 856.82 300.112 856.612 293.444C856.403 286.778 856.125 286.501 855.57 286.362C855.014 286.222 854.18 286.222 846.612 286.083C839.042 285.944 824.737 285.667 817.237 285.729C809.737 285.792 809.042 286.196 807.528 286.313C806.014 286.432 803.68 286.264 765.348 286.133C727.014 286.001 652.68 285.903 611.555 285.507C570.43 285.112 562.514 284.417 552.653 282.958C542.792 281.501 530.987 279.278 517.862 276.663C504.737 274.049 490.292 271.042 478.278 268.966C466.264 266.889 456.68 265.744 446.264 264.817C435.848 263.889 424.598 263.181 416.212 262.608C407.827 262.036 402.305 261.598 398.07 261.321C393.834 261.042 390.883 260.924 388.852 260.796C386.82 260.667 385.709 260.528 385.153 263.862Z" fill="#F5F6FA"/>
<path d="M386.153 263.862C385.598 267.194 385.598 274.001 385.042 282.472C384.487 290.944 383.375 301.083 382.612 307.612C381.848 314.139 381.43 317.056 381.362 320.042C381.292 323.028 381.57 326.083 381.987 327.751C382.403 329.417 382.959 329.694 402.68 329.487C422.403 329.278 461.292 328.583 487.959 327.958C514.625 327.333 529.07 326.778 551.5 326.292C573.93 325.806 604.348 325.389 628.584 325.389C652.82 325.389 670.875 325.806 690.042 326.501C709.209 327.194 729.487 328.167 748.237 329.139C766.987 330.112 784.209 331.083 798.653 331.639C813.098 332.194 824.764 332.333 832.959 332.542C841.153 332.751 845.875 333.028 849 332.889C852.125 332.751 853.653 332.194 854.903 331.014C856.153 329.833 857.125 328.028 857.542 320.597C857.959 313.167 857.82 300.112 857.612 293.444C857.403 286.778 857.125 286.501 856.57 286.362C856.014 286.222 855.18 286.222 847.612 286.083C840.042 285.944 825.737 285.667 818.237 285.729C810.737 285.792 810.042 286.196 808.528 286.313C807.014 286.432 804.68 286.264 766.348 286.133C728.014 286.001 653.68 285.902 612.555 285.507C571.43 285.112 563.514 284.417 553.653 282.958C543.792 281.499 531.987 279.278 518.862 276.663C505.737 274.049 491.292 271.042 479.278 268.966C467.264 266.889 457.68 265.744 447.264 264.817C436.848 263.889 425.598 263.181 417.212 262.608C408.827 262.036 403.305 261.598 399.07 261.321C394.834 261.042 391.883 260.924 389.852 260.796C387.82 260.667 386.709 260.528 386.153 263.862Z" stroke="black" stroke-width="0.062504" stroke-miterlimit="10" stroke-linejoin="round"/>
<path d="M274.598 98.3055C280.431 99.9718 286.264 101.639 298.903 103.306C311.542 104.972 330.987 106.639 356.681 108.306C382.376 109.972 414.321 111.639 450.571 112.611C486.819 113.583 527.376 113.861 575.571 114.833C623.764 115.806 679.598 117.472 713.487 118.306C747.376 119.139 759.321 119.139 771.264 119.139C757.931 109.694 744.598 100.251 729.321 89.5555C714.042 78.8618 696.821 66.9168 681.681 56.9168C666.542 46.9168 653.487 38.8605 643.071 33.3055C632.653 27.7505 624.876 24.6943 616.542 22.4718C608.209 20.2505 599.321 18.8605 587.376 17.8893C575.431 16.9168 560.431 16.3605 543.487 16.6393C526.542 16.9168 507.653 18.028 487.514 20.2505C467.376 22.4718 445.987 25.8055 419.737 31.6393C393.487 37.4718 362.376 45.8055 339.181 52.7505C315.987 59.6943 300.709 65.2505 290.571 69.5555C280.431 73.8605 275.431 76.9168 271.959 79.5555C268.487 82.1943 266.542 84.4168 265.292 86.2218C264.042 88.028 263.487 89.4168 263.487 90.8055C263.487 92.1943 264.042 93.583 265.987 94.833C267.931 96.083 271.264 97.1943 274.598 98.3055Z" fill="#5C6D7D" stroke="black" stroke-width="3.74999" stroke-miterlimit="10" stroke-linejoin="round"/>
<path d="M684.598 99.5556C671.542 90.5281 658.487 81.5006 645.57 73.3756C632.653 65.2506 619.876 58.0281 609.598 54.0006C599.321 49.9718 591.542 49.1393 582.514 48.1668C573.487 47.1943 563.209 46.0831 553.07 45.8056C542.93 45.5281 532.931 46.0831 518.348 47.1943C503.764 48.3056 484.598 49.9718 474.459 51.2218C464.321 52.4718 463.209 53.3056 462.098 54.1393C464.598 54.9718 467.098 55.8056 468.626 56.5006C470.153 57.1943 470.709 57.7506 472.098 62.1943C473.487 66.6393 475.709 74.9718 478.307 83.7893C480.906 92.6056 483.88 101.906 486.854 111.206L678.522 115.372L684.598 99.5556Z" fill="#EAE7EA"/>
<path d="M844.389 116.786C838.573 117.228 832.758 117.671 825.397 118.098C818.035 118.524 809.129 118.936 803.53 118.593C797.93 118.251 795.639 117.153 782.827 108.612C770.014 100.071 746.681 84.0832 724.649 69.3094C702.618 54.5357 681.889 40.9732 670.327 33.3582C658.764 25.7444 656.368 24.0769 654.962 22.8382C653.556 21.5982 653.139 20.7857 652.931 19.7532C652.723 18.7219 652.723 17.4719 653.348 16.6394C653.973 15.8057 655.223 15.3894 656.681 15.0769C658.139 14.7644 659.805 14.5557 661.16 14.6594C662.514 14.7644 663.555 15.1807 677.098 22.4719C690.639 29.7644 716.681 43.9307 746.647 60.7957C776.612 77.6607 810.5 97.2232 844.389 116.786Z" fill="#F3F6F3" stroke="black" stroke-width="0.062504" stroke-miterlimit="10" stroke-linejoin="round"/>
<path d="M664.036 14.7231C654.056 11.8056 644.077 8.88937 631.587 6.51437C619.098 4.13937 604.098 2.30562 589.598 1.22187C575.098 0.139375 561.098 -0.194375 545.014 0.221875C528.931 0.639375 510.764 1.80562 494.014 3.47187C477.264 5.13937 461.931 7.30562 447.848 9.47188C433.764 11.6394 420.931 13.8056 409.681 15.8894C398.431 17.9719 388.764 19.9719 381.931 21.3894C375.098 22.8056 371.098 23.6394 368.848 24.2219C366.598 24.8056 366.098 25.1394 365.014 26.3056C363.931 27.4719 362.264 29.4719 360.598 31.4719C367.264 29.6394 373.931 27.8056 385.514 25.2219C397.098 22.6394 413.598 19.3056 428.598 16.7219C443.598 14.1394 457.098 12.3056 470.181 10.8056C483.264 9.30562 495.931 8.13937 507.848 7.22187C519.764 6.30562 530.931 5.63937 540.931 5.30562C550.931 4.97188 559.764 4.97187 568.931 5.38932C578.098 5.80557 587.598 6.63932 600.014 8.55557C612.431 10.4718 627.764 13.4718 637.337 15.9831C646.911 18.4931 650.723 20.5143 654.536 22.5356C653.764 20.7231 652.993 18.9106 653.036 17.7443C653.077 16.5768 653.931 16.0568 654.993 15.6193C656.056 15.1806 657.327 14.8268 658.868 14.6918C660.411 14.5556 662.223 14.6394 664.036 14.7231Z" fill="#F5F6FA"/>
<path d="M664.036 14.7231C654.056 11.8056 644.077 8.88937 631.587 6.51437C619.098 4.13937 604.098 2.30562 589.598 1.22187C575.098 0.139375 561.098 -0.194375 545.014 0.221875C528.931 0.639375 510.764 1.80562 494.014 3.47187C477.264 5.13937 461.931 7.30563 447.848 9.47188C433.764 11.6394 420.931 13.8056 409.681 15.8894C398.431 17.9719 388.764 19.9719 381.931 21.3894C375.098 22.8056 371.098 23.6394 368.848 24.2219C366.598 24.8056 366.098 25.1394 365.014 26.3056C363.931 27.4719 362.264 29.4719 360.598 31.4719C367.264 29.6394 373.931 27.8056 385.514 25.2219C397.098 22.6394 413.598 19.3056 428.598 16.7219C443.598 14.1394 457.098 12.3056 470.181 10.8056C483.264 9.30562 495.931 8.13937 507.848 7.22187C519.764 6.30562 530.931 5.63937 540.931 5.30562C550.931 4.97187 559.764 4.97187 568.931 5.38932C578.098 5.80557 587.598 6.63932 600.014 8.55557C612.431 10.4718 627.764 13.4718 637.337 15.9831C646.911 18.4931 650.723 20.5143 654.536 22.5356C653.764 20.7231 652.993 18.9106 653.036 17.7443C653.077 16.5768 653.931 16.0568 654.993 15.6193C656.056 15.1806 657.327 14.8268 658.868 14.6918C660.411 14.5556 662.223 14.6394 664.036 14.7231Z" stroke="black" stroke-width="0.062504" stroke-miterlimit="10" stroke-linejoin="round"/>
<path d="M366.098 23.4719C359.93 24.8057 353.764 26.1394 348.598 27.3894C343.43 28.6394 339.264 29.8057 337.18 30.5557C335.098 31.3057 335.098 31.6394 335.098 32.6394C335.098 33.6394 335.098 35.3057 335.362 36.8194C335.625 38.3332 336.153 39.6957 336.68 41.0569C340.362 40.0844 344.042 39.1119 348.07 37.8269C352.098 36.5432 356.473 34.9457 359.285 33.1669C362.098 31.3894 363.348 29.4307 364.223 27.7844C365.098 26.1394 365.598 24.8057 366.098 23.4719Z" fill="#F5F6FA"/>
<path d="M366.098 23.4719C359.93 24.8057 353.764 26.1394 348.598 27.3894C343.43 28.6394 339.264 29.8057 337.18 30.5557C335.098 31.3057 335.098 31.6394 335.098 32.6394C335.098 33.6394 335.098 35.3057 335.362 36.8194C335.625 38.3332 336.153 39.6957 336.68 41.0569C340.362 40.0844 344.042 39.1119 348.07 37.8269C352.098 36.5432 356.473 34.9457 359.285 33.1669C362.098 31.3894 363.348 29.4307 364.223 27.7844C365.098 26.1394 365.598 24.8057 366.098 23.4719Z" stroke="black" stroke-width="0.062504" stroke-miterlimit="10" stroke-linejoin="round"/>
<path d="M217.098 72.9719L333.764 38.3057L334.598 41.7969L218.098 75.9719L217.098 72.9719Z" fill="#2B2A2F"/>
<path d="M264.098 51.4719C256.43 52.9719 248.764 54.4719 240.848 56.8057C232.93 59.1394 224.764 62.3057 217.348 65.3894C209.93 68.4719 203.264 71.4719 196.598 74.4719" stroke="black" stroke-width="0.624997" stroke-miterlimit="10" stroke-linejoin="round"/>
<path d="M217.598 72.4719C224.43 69.4719 231.264 66.4719 239.18 63.4719C247.098 60.4719 256.098 57.4719 264.098 54.8894C272.098 52.3057 279.098 50.1394 286.014 48.2219C292.93 46.3057 299.764 44.6394 306.348 43.3057C312.93 41.9719 319.264 40.9719 325.598 39.9719" stroke="black" stroke-width="0.062504" stroke-miterlimit="10" stroke-linejoin="round"/>
<path d="M278.598 49.4719L263.598 50.9719L266.098 54.4719L278.598 49.4719Z" fill="#2B2A2F"/>
<path d="M196.598 74.4719L185.598 74.9719L171.598 77.4719L159.098 79.4719L156.598 78.9719L146.317 81.0657L148.348 89.9719L151.785 89.1907L152.723 92.6282L157.098 91.9719L156.317 88.4094L160.067 87.4719L159.129 84.0344L162.567 82.6282L179.598 77.4719L192.098 75.9719L197.098 74.4719" fill="#2B2A2F"/>
<path d="M196.598 74.4719L185.598 74.9719L171.598 77.4719L159.098 79.4719L156.598 78.9719L146.317 81.0657L148.348 89.9719L151.785 89.1907L152.723 92.6282L157.098 91.9719L156.317 88.4094L160.067 87.4719L159.129 84.0344L162.567 82.6282L179.598 77.4719L192.098 75.9719L197.098 74.4719" stroke="black" stroke-width="0.062504" stroke-miterlimit="10" stroke-linejoin="round"/>
<path d="M158.098 255.098C154.764 254.723 151.43 254.348 141.93 253.993C132.43 253.639 116.764 253.306 104.264 252.889C91.7642 252.472 82.4305 251.972 75.7642 251.639C69.098 251.306 65.098 251.139 61.9305 251.139C58.7642 251.139 56.4305 251.306 54.098 251.889C51.7642 252.472 49.4305 253.472 47.4305 254.556C45.4305 255.639 43.7642 256.806 42.2642 258.139C40.7642 259.472 39.4305 260.972 37.848 263.556C36.2642 266.139 34.4305 269.806 32.6805 273.056C30.9305 276.306 29.2642 279.139 27.613 281.534C25.9617 283.931 24.3242 285.889 22.688 287.848"/>
<path d="M158.098 255.098C154.764 254.723 151.43 254.348 141.93 253.993C132.43 253.639 116.764 253.306 104.264 252.889C91.7642 252.472 82.4305 251.972 75.7642 251.639C69.098 251.306 65.098 251.139 61.9305 251.139C58.7642 251.139 56.4305 251.306 54.098 251.889C51.7642 252.472 49.4305 253.472 47.4305 254.556C45.4305 255.639 43.7642 256.806 42.2642 258.139C40.7642 259.472 39.4305 260.972 37.848 263.556C36.2642 266.139 34.4305 269.806 32.6805 273.056C30.9305 276.306 29.2642 279.139 27.613 281.534C25.9617 283.931 24.3242 285.889 22.688 287.848" stroke="black" stroke-width="0.050001" stroke-miterlimit="10" stroke-linejoin="round"/>
<path d="M215.598 180.098C204.223 179.848 192.848 179.598 176.327 179.161C159.805 178.722 138.139 178.097 125.743 177.577C113.348 177.056 110.223 176.639 107.098 176.222" stroke="black" stroke-width="0.050001" stroke-miterlimit="10" stroke-linejoin="round"/>
<path d="M365.098 204.472C358.93 198.472 352.764 192.472 346.848 187.806C340.93 183.139 335.264 179.806 328.764 176.639C322.264 173.472 314.93 170.472 307.18 168.222C299.43 165.972 291.264 164.472 281.93 164.389C272.598 164.306 262.098 165.639 251.848 167.972C241.598 170.306 231.598 173.639 223.43 177.139C215.264 180.639 208.93 184.306 202.348 189.222C195.764 194.139 188.93 200.306 183.348 207.056C177.764 213.806 173.43 221.139 169.848 228.222C166.264 235.306 163.43 242.139 160.93 248.389C158.43 254.639 156.264 260.306 153.598 266.639C150.93 272.972 147.764 279.972 145.098 284.722C142.43 289.472 140.264 291.972 138.695 293.534C137.128 295.098 136.158 295.723 135.188 296.348" stroke="black" stroke-width="0.050001" stroke-miterlimit="10" stroke-linejoin="round"/>
<path d="M124.598 152.972L33.5979 151.472L16.5979 175.972H105.598L124.598 152.972Z" stroke="#323535" stroke-width="0.062504" stroke-miterlimit="10" stroke-linejoin="round"/>
<path d="M119.805 119.503C116.889 118.931 111.68 118.202 105.692 117.212C99.7017 116.222 92.9304 114.972 88.2954 113.983C83.6604 112.993 81.1604 112.264 78.9729 111.171C76.7854 110.077 74.9104 108.618 73.7117 107.368C72.5142 106.118 71.9929 105.077 71.6292 104.556C71.2642 104.034 71.0554 104.034 68.7117 104.296C66.3679 104.556 61.8892 105.077 57.3579 104.972C52.8267 104.868 48.2429 104.139 43.5042 102.784C38.7642 101.431 33.8679 99.4519 29.3367 97.4719C24.8054 95.4932 20.6392 93.5144 18.0867 92.3157C15.5354 91.1182 14.5979 90.7019 13.8167 90.7019C13.0354 90.7019 12.4104 91.1182 12.4617 92.1594C12.5142 93.2019 13.2429 94.8682 15.7429 97.3157C18.2429 99.7644 22.5142 102.993 27.0454 105.909C31.5767 108.827 36.3679 111.431 41.5242 113.722C46.6804 116.014 52.2017 117.993 58.0867 119.712C63.9729 121.431 70.2229 122.889 77.1492 123.774C84.0767 124.659 91.6804 124.972 98.5042 124.972C105.327 124.972 111.368 124.659 115.118 124.399C118.868 124.139 120.327 123.931 121.42 123.358C122.514 122.784 123.243 121.847 123.295 121.171C123.348 120.493 122.723 120.077 119.805 119.503Z" stroke="black" stroke-width="0.062504" stroke-miterlimit="10" stroke-linejoin="round"/>
<path d="M20.5355 102.55C19.8055 103.435 19.3892 106.144 19.7542 108.488C20.118 110.831 21.2642 112.81 22.983 114.998C24.7017 117.185 26.993 119.581 28.973 122.029C30.9517 124.476 32.618 126.976 33.9205 129.32C35.223 131.664 36.1605 133.851 36.7855 135.935C37.4105 138.019 37.723 139.998 39.6492 140.101C41.5767 140.206 45.118 138.435 49.1292 136.039C53.1392 133.644 57.618 130.623 60.6392 128.539C63.6605 126.456 65.223 125.31 65.7955 124.738C66.368 124.164 65.9517 124.164 63.868 123.695C61.7855 123.226 58.0355 122.289 53.7642 120.883C49.493 119.476 44.7017 117.601 40.1705 115.31C35.6392 113.019 31.368 110.31 28.608 108.279C25.848 106.248 24.598 104.894 23.4517 103.748C22.3055 102.601 21.2642 101.664 20.5355 102.55Z" stroke="black" stroke-width="0.062504" stroke-miterlimit="10" stroke-linejoin="round"/>
<path d="M124.285 152.472C125.639 150.702 126.993 148.931 127.723 147.421C128.452 145.909 128.555 144.659 128.087 143.306C127.618 141.952 126.577 140.493 124.337 139.296C122.098 138.097 118.66 137.159 114.805 136.118C110.952 135.077 106.68 133.931 102.67 132.941C98.6604 131.952 94.9104 131.118 92.2542 130.389C89.5979 129.659 88.0354 129.034 86.4729 128.409" stroke="black" stroke-width="0.062504" stroke-miterlimit="10" stroke-linejoin="round"/>
<path d="M115.848 151.847C116.264 150.806 116.68 149.764 116.837 148.827C116.993 147.889 116.889 147.056 115.899 146.118C114.91 145.181 113.035 144.139 110.692 142.733C108.348 141.327 105.535 139.556 102.514 138.149C99.4929 136.743 96.2641 135.702 92.5666 134.659C88.8679 133.618 84.7016 132.577 81.1604 131.639C77.6179 130.702 74.7016 129.868 71.9416 129.243C69.1804 128.618 66.5767 128.202 63.9729 127.784" stroke="black" stroke-width="0.062504" stroke-miterlimit="10" stroke-linejoin="round"/>
<path d="M501.482 288.306C495.996 286.501 488.357 284.278 478.357 281.917C468.357 279.556 455.996 277.056 445.648 275.251C435.301 273.444 426.968 272.333 421.621 271.917C416.273 271.501 413.912 271.778 411.898 272.472C409.885 273.167 408.218 274.278 406.898 276.014C405.58 277.751 404.607 280.112 404.121 282.126C403.635 284.139 403.635 285.806 403.912 288.167C404.191 290.528 404.746 293.583 406.273 296.708C407.801 299.833 410.301 303.028 412.732 305.458C415.162 307.889 417.523 309.556 422.107 310.876C426.691 312.194 433.496 313.167 440.51 313.792C447.523 314.417 454.746 314.694 463.912 314.694C473.08 314.694 484.191 314.417 501.691 314.001C519.191 313.583 543.08 313.028 567.037 312.681C590.996 312.333 615.023 312.194 638.912 312.264C662.801 312.333 686.551 312.611 712.523 313.167C738.496 313.722 766.691 314.556 788.982 314.972C811.273 315.389 827.662 315.389 838.566 315.667C849.468 315.944 854.885 316.501 857.246 316.501C859.607 316.501 858.912 315.944 850.58 315.181C842.246 314.417 826.273 313.444 797.941 312.056C769.607 310.667 728.912 308.862 685.787 306.362C642.662 303.862 597.107 300.667 568.01 298.306C538.912 295.944 526.273 294.417 518.287 292.958C510.301 291.501 506.968 290.112 501.482 288.306Z" stroke="black" stroke-width="0.062504" stroke-miterlimit="10" stroke-linejoin="round"/>
<path d="M493.903 290.528C489.459 289.278 481.403 287.333 471.959 285.112C462.514 282.889 451.68 280.389 442.653 278.583C433.625 276.778 426.403 275.667 421.334 275.181C416.264 274.694 413.348 274.833 411.264 275.737C409.18 276.639 407.93 278.306 407.167 280.528C406.403 282.751 406.125 285.528 406.542 288.097C406.959 290.667 408.07 293.028 409.25 295.251C410.43 297.472 411.68 299.556 413.278 301.569C414.875 303.583 416.82 305.528 419.875 306.917C422.93 308.306 427.098 309.139 434.459 309.694C441.82 310.251 452.375 310.528 460.917 310.597C469.459 310.667 475.987 310.528 480.778 310.181C485.57 309.833 488.625 309.278 491.612 307.819C494.598 306.362 497.514 304.001 498.973 302.126C500.43 300.251 500.43 298.862 500.362 297.403C500.292 295.944 500.153 294.417 499.667 293.376C499.18 292.333 498.348 291.778 493.903 290.528Z" stroke="black" stroke-width="0.062504" stroke-miterlimit="10" stroke-linejoin="round"/>
<path d="M484.098 288.222C481.43 287.639 478.764 287.056 476.43 286.514C474.098 285.972 472.098 285.472 470.098 284.972C463.68 283.472 457.264 281.972 451.098 280.597C444.93 279.222 439.014 277.972 433.68 277.014C428.348 276.056 423.598 275.389 420.055 275.097C416.514 274.806 414.18 274.889 412.348 275.514C410.514 276.139 409.18 277.306 408.264 278.639C407.348 279.972 406.848 281.472 406.68 283.097C406.514 284.722 406.68 286.472 407.014 288.139C407.348 289.806 407.848 291.389 408.555 293.139C409.264 294.889 410.18 296.806 411.223 298.472C412.264 300.139 413.43 301.556 414.014 302.181C414.598 302.806 414.598 302.639 414.764 302.222C414.93 301.806 415.264 301.139 415.18 300.431C415.098 299.722 414.598 298.972 413.848 297.806C413.098 296.639 412.098 295.056 411.305 293.389C410.514 291.722 409.93 289.972 409.68 288.181C409.43 286.389 409.514 284.556 409.764 282.972C410.014 281.389 410.43 280.056 411.389 279.264C412.348 278.472 413.848 278.222 416.348 278.222C418.848 278.222 422.348 278.472 426.305 278.806C430.264 279.139 434.68 279.556 439.305 280.222C443.93 280.889 448.764 281.806 453.639 282.764C458.514 283.722 463.43 284.722 468.514 285.639C473.598 286.556 478.848 287.389 484.098 288.222Z" fill="#2B2A2F" stroke="black" stroke-width="0.062504" stroke-miterlimit="10" stroke-linejoin="round"/>
<path d="M441.264 131.639C440.598 129.972 439.098 127.972 436.014 126.639C432.931 125.306 428.264 124.639 422.681 124.389C417.098 124.139 410.598 124.306 404.598 124.722C398.598 125.139 393.098 125.806 389.014 127.056C384.931 128.306 382.264 130.139 380.348 132.222C378.431 134.306 377.264 136.639 376.764 139.722C376.264 142.806 376.431 146.639 377.598 151.639C378.764 156.639 380.931 162.806 383.931 169.139C386.931 175.472 390.764 181.972 394.931 187.389C399.098 192.806 403.598 197.139 408.931 200.722C414.264 204.306 420.431 207.139 426.264 209.472C432.098 211.804 437.598 213.639 442.848 214.889C448.098 216.139 453.098 216.806 456.348 216.639C459.598 216.472 461.098 215.472 462.181 213.889C463.264 212.306 463.931 210.139 463.764 208.056C463.598 205.972 462.598 203.972 460.598 200.556C458.598 197.139 455.598 192.306 452.931 186.722C450.264 181.139 447.931 174.806 446.014 169.139C444.098 163.472 442.598 158.472 441.764 154.389C440.931 150.306 440.764 147.139 440.848 144.222C440.931 141.306 441.264 138.639 441.514 136.639C441.764 134.639 441.931 133.306 441.264 131.639Z" fill="#F5F6FA"/>
<path d="M441.264 129.269C440.598 127.602 439.098 125.602 436.014 124.269C432.931 122.935 428.264 122.269 422.681 122.019C417.098 121.769 410.598 121.935 404.598 122.352C398.598 122.769 393.098 123.435 389.014 124.685C384.931 125.935 382.264 127.769 380.348 129.852C378.431 131.935 377.264 134.269 376.764 137.352C376.264 140.435 376.431 144.269 377.598 149.269C378.764 154.269 380.931 160.435 383.931 166.769C386.931 173.102 390.764 179.602 394.931 185.019C399.098 190.435 403.598 194.769 408.931 198.352C414.264 201.935 420.431 204.769 426.264 207.102C432.098 209.435 437.598 211.269 442.848 212.519C448.098 213.769 453.098 214.435 456.348 214.269C459.598 214.102 461.098 213.102 462.181 211.519C463.264 209.935 463.931 207.769 463.764 205.685C463.598 203.602 462.598 201.602 460.598 198.185C458.598 194.769 455.598 189.935 452.931 184.352C450.264 178.769 447.931 172.435 446.014 166.769C444.098 161.102 442.598 156.102 441.764 152.019C440.931 147.935 440.764 144.769 440.848 141.852C440.931 138.935 441.264 136.269 441.514 134.269C441.764 132.269 441.931 130.935 441.264 129.269Z" stroke="black" stroke-width="0.062504" stroke-miterlimit="10" stroke-linejoin="round"/>
<path d="M400.33 182.911C402.233 183.741 406.594 186.049 408.43 186.806C411.264 187.972 413.93 188.972 415.68 189.556C417.43 190.139 418.264 190.306 418.18 189.722C418.098 189.139 417.098 187.806 415.93 184.889C414.764 181.972 413.43 177.472 411.93 172.556C410.43 167.639 408.764 162.306 407.93 156.889C407.098 151.472 407.098 145.972 407.18 142.722C407.264 139.472 407.43 138.472 409.098 137.556C410.764 136.639 413.93 135.806 417.098 134.722C420.264 133.639 423.43 132.306 426.598 130.972C419.93 130.806 413.264 130.639 407.68 131.139C402.098 131.639 397.598 132.806 394.514 134.056C391.43 135.306 389.764 136.639 388.514 138.472C387.264 140.306 386.43 142.639 386.348 145.556C386.264 148.472 386.93 151.972 388.264 156.389C389.598 160.806 391.598 166.139 394.18 171.556C396.06 175.497 398.248 179.481 400.33 182.911Z" stroke="black" stroke-width="0.050001" stroke-miterlimit="10" stroke-linejoin="round"/>
<path d="M458.18 209.056C457.93 208.139 456.764 206.806 453.68 205.056C450.598 203.306 445.598 201.139 439.764 198.639C433.93 196.139 427.264 193.306 422.098 191.222C416.93 189.139 413.264 187.806 409.848 186.722C406.43 185.639 403.264 184.806 403.098 185.972C402.93 187.139 405.764 190.306 409.68 193.139C413.598 195.972 418.598 198.472 424.098 200.806C429.598 203.139 435.598 205.306 440.098 206.972C444.598 208.639 447.598 209.806 450.18 210.389C452.764 210.972 454.93 210.972 456.348 210.722C457.764 210.472 458.43 209.972 458.18 209.056Z" fill="#D5D8D8" stroke="black" stroke-width="0.050001" stroke-miterlimit="10" stroke-linejoin="round"/>
<path d="M400.36 182.932C401.152 184.226 401.932 185.443 402.68 186.556C405.43 190.639 407.764 193.306 411.514 195.722C415.264 198.139 420.43 200.306 426.098 202.556C431.764 204.806 437.93 207.139 442.514 208.639C447.098 210.139 450.098 210.806 452.764 210.972C455.43 211.139 457.764 210.806 458.93 210.222C460.098 209.639 460.098 208.806 459.68 207.472C459.264 206.139 458.43 204.306 457.014 201.556C455.598 198.806 453.598 195.139 451.598 191.056C449.598 186.972 447.598 182.472 445.764 178.139C443.93 173.806 442.264 169.639 440.598 165.472"/>
<path d="M400.36 182.932C401.152 184.226 401.932 185.443 402.68 186.556C405.43 190.639 407.764 193.306 411.514 195.722C415.264 198.139 420.43 200.306 426.098 202.556C431.764 204.806 437.93 207.139 442.514 208.639C447.098 210.139 450.098 210.806 452.764 210.972C455.43 211.139 457.764 210.806 458.93 210.222C460.098 209.639 460.098 208.806 459.68 207.472C459.264 206.139 458.43 204.306 457.014 201.556C455.598 198.806 453.598 195.139 451.598 191.056C449.598 186.972 447.598 182.472 445.764 178.139C443.93 173.806 442.264 169.639 440.598 165.472" stroke="black" stroke-width="0.050001" stroke-miterlimit="10" stroke-linejoin="round"/>
<path d="M468.188 114.848C465.324 116.973 462.462 119.098 459.623 122.191C456.786 125.284 453.973 129.347 452.149 132.889C450.327 136.431 449.493 139.452 449.077 142.159C448.661 144.868 448.661 147.264 449.024 150.128C449.389 152.993 450.118 156.327 451.212 160.389C452.306 164.452 453.764 169.243 456.368 175.597C458.973 181.952 462.723 189.868 466.786 197.316C470.848 204.764 475.223 211.743 479.546 218.253C483.868 224.764 488.139 230.806 492.254 236.066C496.368 241.327 500.327 245.806 504.493 250.284C508.661 254.764 513.036 259.243 517.202 262.889C521.368 266.534 525.327 269.347 529.702 271.847C534.077 274.347 538.868 276.534 544.598 278.358C550.327 280.181 556.993 281.639 563.608 282.628C570.223 283.618 576.786 284.139 583.556 284.399C590.327 284.659 597.306 284.659 608.556 284.712C619.806 284.764 635.327 284.868 654.233 284.921C673.139 284.972 695.431 284.972 717.827 285.128C740.223 285.284 762.723 285.597 777.853 285.884C792.983 286.171 800.743 286.431 808.504 286.691C809.806 278.827 811.108 270.962 812.593 261.978C814.077 252.993 815.743 242.889 817.254 233.046C818.764 223.202 820.118 213.618 820.899 205.181C821.681 196.743 821.889 189.452 821.837 183.149C821.786 176.847 821.473 171.534 820.848 166.899C820.223 162.264 819.286 158.306 817.879 154.608C816.473 150.909 814.598 147.472 812.306 144.296C810.014 141.118 807.306 138.202 803.504 135.284C799.702 132.368 794.806 129.452 790.483 127.108C786.161 124.764 782.41 122.993 779.227 122.066C776.044 121.139 773.429 121.056 770.813 120.973" fill="#F5F6FA"/>
<path d="M468.188 117.848C465.324 119.973 462.462 122.098 459.623 125.191C456.786 128.284 453.973 132.347 452.149 135.889C450.327 139.431 449.493 142.452 449.077 145.159C448.661 147.868 448.661 150.264 449.024 153.128C449.389 155.993 450.118 159.327 451.212 163.389C452.306 167.452 453.764 172.243 456.368 178.597C458.973 184.952 462.723 192.868 466.786 200.316C470.848 207.764 475.223 214.743 479.546 221.253C483.868 227.764 488.139 233.806 492.254 239.066C496.368 244.327 500.327 248.806 504.493 253.284C508.661 257.764 513.036 262.243 517.202 265.889C521.368 269.534 525.327 272.347 529.702 274.847C534.077 277.347 538.868 279.534 544.598 281.358L562.608 285.628C569.223 286.618 576.786 287.139 583.556 287.399C590.327 287.659 597.306 287.659 608.556 287.712C619.806 287.764 635.327 287.868 654.233 287.921C673.139 287.972 695.431 287.972 717.827 288.128C740.223 288.284 762.723 288.597 777.853 288.884C792.983 289.171 800.743 289.431 808.504 289.691C809.806 281.827 811.108 273.962 812.593 264.978C814.077 255.993 815.743 245.889 817.254 236.046C818.764 226.202 820.118 216.618 820.899 208.181C821.681 199.743 821.889 192.452 821.837 186.149C821.786 179.847 821.473 174.534 820.848 169.899C820.223 165.264 819.286 161.306 817.879 157.608C816.473 153.909 814.598 150.472 812.306 147.296C810.014 144.118 807.306 141.202 803.504 138.284C799.702 135.368 794.806 132.452 790.483 130.108C786.161 127.764 782.41 125.993 779.227 125.066C776.044 124.139 773.429 124.056 770.813 123.973"/>
<path d="M468.188 117.848C465.324 119.973 462.462 122.098 459.623 125.191C456.786 128.284 453.973 132.347 452.149 135.889C450.327 139.431 449.493 142.452 449.077 145.159C448.661 147.868 448.661 150.264 449.024 153.128C449.389 155.993 450.118 159.327 451.212 163.389C452.306 167.452 453.764 172.243 456.368 178.597C458.973 184.952 462.723 192.868 466.786 200.316C470.848 207.764 475.223 214.743 479.546 221.253C483.868 227.764 488.139 233.806 492.254 239.066C496.368 244.327 500.327 248.806 504.493 253.284C508.661 257.764 513.036 262.243 517.202 265.889C521.368 269.534 525.327 272.347 529.702 274.847C534.077 277.347 538.868 279.534 544.598 281.358L562.608 285.628C569.223 286.618 576.786 287.139 583.556 287.399C590.327 287.659 597.306 287.659 608.556 287.712C619.806 287.764 635.327 287.868 654.233 287.921C673.139 287.972 695.431 287.972 717.827 288.128C740.223 288.284 762.723 288.597 777.853 288.884C792.983 289.171 800.743 289.431 808.504 289.691C809.806 281.827 811.108 273.962 812.593 264.978C814.077 255.993 815.743 245.889 817.254 236.046C818.764 226.202 820.118 216.618 820.899 208.181C821.681 199.743 821.889 192.452 821.837 186.149C821.786 179.847 821.473 174.534 820.848 169.899C820.223 165.264 819.286 161.306 817.879 157.608C816.473 153.909 814.598 150.472 812.306 147.296C810.014 144.118 807.306 141.202 803.504 138.284C799.702 135.368 794.806 132.452 790.483 130.108C786.161 127.764 782.41 125.993 779.227 125.066C776.044 124.139 773.429 124.056 770.813 123.973" stroke="black" stroke-opacity="0.8" stroke-width="0.162499" stroke-miterlimit="10" stroke-linejoin="round"/>
<path d="M698.18 78.3894C696.264 79.6394 693.93 82.3057 692.348 85.5557C690.764 88.8057 689.93 92.6394 689.93 96.6394C689.93 100.639 690.764 104.806 692.098 107.556C693.43 110.306 695.264 111.639 697.514 112.722C699.764 113.806 702.43 114.639 706.348 114.889C710.264 115.139 715.43 114.806 719.598 114.139C723.764 113.472 726.93 112.472 729.264 111.056C731.598 109.639 733.098 107.806 734.18 105.889C735.264 103.972 735.93 101.972 736.264 100.389C736.598 98.8057 736.598 97.6394 736.014 96.0557C735.43 94.4719 734.264 92.4719 731.848 90.2219C729.43 87.9719 725.764 85.4719 721.764 83.3057C717.764 81.1394 713.43 79.3057 710.264 78.3894C707.098 77.4719 705.098 77.4719 703.348 77.3894C701.598 77.3057 700.098 77.1394 698.18 78.3894Z" fill="#32353E"/>
<path d="M1149.29 196.786C1148.42 196.347 1145.64 195.868 1144.6 195.223C1136.26 190.084 1128.52 183.973 1120.54 178.348C1112.55 172.723 1106.3 167.446 1099.29 161.473C1096.02 158.691 1091.97 155.544 1088.66 152.411C1084.86 148.819 1081.8 145.222 1078.24 141.847C1083.1 142.889 1087.97 143.931 1091.37 144.591C1094.77 145.251 1096.72 145.528 1099.29 147.333C1101.85 149.139 1105.05 152.472 1109.42 156.987C1113.8 161.501 1119.35 167.194 1125.19 172.958C1131.02 178.722 1137.13 184.556 1141.2 188.538C1145.26 192.522 1147.27 194.653 1149.29 196.786Z" fill="#949791" stroke="black" stroke-width="0.062504" stroke-miterlimit="10" stroke-linejoin="round"/>
<path d="M1141.47 193.036C1138.21 194.792 1134.95 196.549 1131.85 197.774C1128.76 199.001 1125.85 199.694 1119.81 200.181C1113.76 200.667 1104.6 200.944 1095.15 200.876C1085.71 200.806 1075.99 200.389 1067.1 200.112C1058.21 199.833 1050.15 199.694 1042.1 199.556" stroke="black" stroke-width="0.062504" stroke-miterlimit="10" stroke-linejoin="round"/>
<path d="M1222.72 256.229C1219.6 254.972 1213.35 254.556 1210.08 254.764C1206.82 254.972 1206.54 255.806 1206.4 263.722C1206.26 271.639 1206.26 286.639 1206.47 294.139C1206.68 301.639 1207.1 301.639 1209.39 302.472C1211.68 303.306 1215.85 304.972 1218.42 305.847C1220.99 306.723 1221.96 306.806 1222.62 303.932C1223.28 301.057 1223.63 295.223 1224.11 287.688C1224.6 280.153 1225.22 270.918 1225.54 265.251C1225.85 259.584 1225.85 257.487 1222.72 256.229Z" fill="#888282"/>
<path d="M1218.28 246.778C1217.1 247.194 1214.18 246.917 1210.92 246.292C1207.65 245.667 1204.04 244.694 1199.04 244.139C1194.04 243.583 1187.65 243.444 1183.56 243.097C1179.46 242.751 1177.65 242.194 1175.5 241.083C1173.35 239.972 1170.85 238.306 1168.7 236.083C1166.54 233.862 1164.74 231.083 1163.76 229.001C1162.79 226.917 1162.65 225.528 1163.14 224.626C1163.63 223.722 1164.74 223.306 1170.29 223.237C1175.85 223.167 1185.85 223.444 1192.79 223.862C1199.74 224.278 1203.63 224.833 1206.33 225.458C1209.04 226.083 1210.57 226.778 1211.89 227.751C1213.21 228.722 1214.32 229.972 1215.22 232.126C1216.13 234.278 1216.82 237.333 1217.31 239.487C1217.79 241.639 1218.07 242.889 1218.49 244.069C1218.9 245.251 1219.46 246.362 1218.28 246.778Z" fill="#888282" stroke="black" stroke-width="1.87499" stroke-miterlimit="10" stroke-linejoin="round"/>
<path d="M1171.82 227.612C1176.82 227.612 1186.54 228.167 1191.75 228.583C1196.96 229.001 1197.65 229.278 1198.14 229.626C1198.63 229.972 1198.9 230.389 1199.32 232.472C1199.74 234.556 1200.29 238.306 1200.15 240.181C1200.01 242.056 1199.18 242.056 1195.85 241.917C1192.51 241.778 1186.68 241.501 1182.65 241.222C1178.63 240.944 1176.4 240.667 1174.67 239.764C1172.93 238.862 1171.68 237.333 1170.43 235.737C1169.18 234.139 1167.93 232.472 1167.24 231.292C1166.54 230.112 1166.4 229.417 1166.47 228.792C1166.54 228.167 1166.82 227.612 1171.82 227.612Z" fill="white" stroke="#A6A6A6" stroke-width="0.062504" stroke-miterlimit="10" stroke-linejoin="round"/>
<path d="M1064.6 230.972C1061.26 224.139 1057.93 217.306 1053.68 211.056C1049.43 204.806 1044.26 199.139 1038.43 194.139C1032.6 189.139 1026.1 184.806 1017.93 180.889C1009.76 176.972 999.93 173.472 989.264 171.389C978.598 169.306 967.098 168.639 956.264 169.222C945.43 169.806 935.264 171.639 926.098 174.639C916.93 177.639 908.764 181.806 901.098 186.556C893.43 191.306 886.264 196.639 879.93 202.556C873.598 208.472 868.098 214.972 863.264 222.806C858.43 230.639 854.264 239.806 851.264 249.389C848.264 258.972 846.43 268.972 845.18 275.139C843.93 281.306 843.264 283.639 842.598 285.972" stroke="black" stroke-width="0.050001" stroke-miterlimit="10" stroke-linejoin="round"/>
<path d="M965.868 214.822C993.793 214.822 1016.43 237.459 1016.43 265.383C1016.43 293.307 993.793 315.944 965.868 315.944C937.944 315.944 915.308 293.307 915.308 265.383C915.308 237.459 937.944 214.822 965.868 214.822Z" fill="black"/>
<path d="M965.868 214.822C993.793 214.822 1016.43 237.459 1016.43 265.383C1016.43 293.307 993.793 315.944 965.868 315.944C937.944 315.944 915.308 293.307 915.308 265.383C915.308 237.459 937.944 214.822 965.868 214.822Z" fill="#35343C" stroke="#35343C" stroke-width="0.111737" stroke-miterlimit="10" stroke-linejoin="round"/>
<path d="M938.1 302.237L937.728 220.669H930.652L913.89 238.921L914.263 284.732L927.672 301.864L938.1 302.237Z" fill="black"/>
<path d="M942.068 206.284C920.147 215.165 904.232 235.942 902.412 260.64L902.204 260.762L902.531 261.688L951.331 254.444L951.847 254.368L951.749 253.856L942.747 206.653L942.632 206.055L942.068 206.284ZM951.203 203.451L951.052 203.168L950.599 203.445L950.119 203.739L950.5 204.651L950.685 204.605L973.193 246.731L973.428 247.171L973.868 246.938L1014.58 225.374L1015.12 225.086L1014.73 224.613C1003.2 210.715 985.58 201.752 965.868 201.752C960.822 201.752 955.911 202.34 951.203 203.451ZM1020.15 297.879L1020.15 297.879L1020.47 298.068C1026.2 288.515 1029.5 277.333 1029.5 265.383C1029.5 253.071 1026 241.575 1020.08 231.863L1019.75 231.317L1019.3 231.772L986.655 264.77L986.303 265.126L986.659 265.477L1019.41 297.889L1019.35 297.992L1019.34 297.998L1020.2 298.522L1020.2 298.516L1020.47 298.081L1020.46 298.077L1020.47 298.069L1020.15 297.879ZM951.455 327.173L952.192 327.804L952.475 327.602C956.793 328.527 961.274 329.014 965.868 329.014C985.632 329.014 1003.29 320.003 1014.95 305.955L1015.34 305.481L1014.8 305.193L973.839 283.606L973.387 283.368L973.158 283.824L951.455 327.173ZM943.314 323.9L951.96 276.806L952.054 276.293L951.537 276.221L902.921 269.388L902.309 269.302L902.353 269.918C904.121 294.884 920.35 315.943 942.745 324.683L944.437 325.343L943.321 323.91L943.314 323.9ZM965.868 189.623C1007.71 189.623 1041.63 223.542 1041.63 265.383C1041.63 307.225 1007.71 341.143 965.868 341.143C924.028 341.143 890.108 307.225 890.108 265.383C890.108 223.542 924.028 189.623 965.868 189.623Z" fill="#F5F6FA" stroke="black"/>
<path d="M965.868 189.123C1007.99 189.123 1042.13 223.266 1042.13 265.383C1042.13 307.501 1007.99 341.643 965.868 341.643C923.752 341.643 889.608 307.501 889.608 265.383C889.608 223.266 923.752 189.123 965.868 189.123ZM902.892 260.938L902.458 261.193L951.258 253.949L942.255 206.747C920.429 215.591 904.604 236.321 902.892 260.938ZM950.86 203.872L950.38 204.166L950.943 204.027L973.634 246.496L1014.35 224.932C1002.9 211.144 985.425 202.252 965.868 202.252C960.727 202.252 955.728 202.867 950.943 204.027L950.86 203.872ZM1020.05 297.816L1020.04 297.811C1025.73 288.333 1029 277.239 1029 265.383C1029 253.167 1025.53 241.761 1019.65 232.123L987.01 265.122L1020.04 297.811L1019.77 298.257L1020.05 297.816H1020.05ZM951.902 327.397L952.364 327.067C956.714 328.014 961.233 328.514 965.868 328.514C985.477 328.514 1003 319.574 1014.56 305.636L973.605 284.048L951.902 327.397ZM942.782 324.031L951.468 276.716L902.852 269.883C904.605 294.651 920.707 315.546 942.927 324.217L942.782 324.031Z" fill="#8B8888"/>
<path d="M950.943 204.027L950.38 204.166L950.86 203.872L950.943 204.027ZM950.943 204.027L973.634 246.496L1014.35 224.932C1002.9 211.144 985.425 202.252 965.868 202.252C960.727 202.252 955.728 202.867 950.943 204.027ZM1020.04 297.811L1020.05 297.816H1020.05L1019.77 298.257L1020.04 297.811ZM1020.04 297.811C1025.73 288.333 1029 277.239 1029 265.383C1029 253.167 1025.53 241.761 1019.65 232.123L987.01 265.122L1020.04 297.811ZM965.868 189.123C1007.99 189.123 1042.13 223.266 1042.13 265.383C1042.13 307.501 1007.99 341.643 965.868 341.643C923.752 341.643 889.608 307.501 889.608 265.383C889.608 223.266 923.752 189.123 965.868 189.123ZM902.892 260.938L902.458 261.193L951.258 253.949L942.255 206.747C920.429 215.591 904.604 236.321 902.892 260.938ZM951.902 327.397L952.364 327.067C956.714 328.014 961.233 328.514 965.868 328.514C985.477 328.514 1003 319.574 1014.56 305.636L973.605 284.048L951.902 327.397ZM942.782 324.031L951.468 276.716L902.852 269.883C904.605 294.651 920.707 315.546 942.927 324.217L942.782 324.031Z" fill="#8B8888" stroke="#15180F" stroke-width="0.062504" stroke-miterlimit="10" stroke-linejoin="round"/>
<path d="M986.03 253.293C986.719 255.629 985.383 258.083 983.045 258.771C980.709 259.459 978.255 258.123 977.568 255.786C976.879 253.449 978.215 250.996 980.553 250.308C982.889 249.619 985.342 250.956 986.03 253.293Z" fill="#393636"/>
<path d="M985.074 272.976C985.763 275.313 984.427 277.766 982.089 278.454C979.753 279.142 977.299 277.806 976.612 275.469C975.923 273.132 977.259 270.679 979.597 269.991C981.933 269.302 984.386 270.638 985.074 272.976Z" fill="#393636"/>
<path d="M966.422 279.908C967.11 282.244 965.774 284.698 963.437 285.386C961.1 286.074 958.647 284.738 957.959 282.401C957.27 280.064 958.607 277.612 960.944 276.923C963.28 276.234 965.733 277.571 966.422 279.908Z" fill="#393636"/>
<path d="M953.935 262.892C954.624 265.228 953.288 267.681 950.95 268.369C948.614 269.058 946.162 267.722 945.473 265.384C944.784 263.048 946.12 260.594 948.458 259.907C950.794 259.218 953.248 260.554 953.935 262.892Z" fill="#393636"/>
<path d="M966.377 246.579C967.064 248.917 965.728 251.369 963.392 252.058C961.054 252.747 958.602 251.411 957.913 249.073C957.224 246.736 958.562 244.283 960.898 243.594C963.235 242.907 965.688 244.243 966.377 246.579Z" fill="#393636"/>
<path d="M974.381 262.887C975.666 267.248 973.172 271.824 968.811 273.109C964.451 274.393 959.873 271.899 958.589 267.539C957.304 263.178 959.798 258.602 964.158 257.317C968.519 256.033 973.096 258.527 974.381 262.887Z" fill="#393636"/>
<path d="M965.868 172.687C914.674 172.687 873.172 214.188 873.172 265.383C873.172 316.578 914.674 358.079 965.868 358.079C1017.06 358.079 1058.57 316.578 1058.57 265.383C1058.57 214.188 1017.06 172.687 965.868 172.687ZM965.868 189.122C1007.99 189.122 1042.13 223.266 1042.13 265.383C1042.13 307.501 1007.99 341.644 965.868 341.644C923.75 341.644 889.608 307.501 889.608 265.383C889.608 223.266 923.75 189.122 965.868 189.122Z" fill="#2F2F2F" stroke="#15180F" stroke-width="0.124999" stroke-miterlimit="10" stroke-linejoin="round"/>
<path d="M278.514 313.617C250.59 313.617 227.954 290.979 227.954 263.056C227.954 235.132 250.59 212.494 278.514 212.494C306.438 212.494 329.075 235.132 329.075 263.056C329.075 290.979 306.438 313.617 278.514 313.617Z" fill="black"/>
<path d="M278.514 313.617C250.59 313.617 227.954 290.979 227.954 263.056C227.954 235.132 250.59 212.494 278.514 212.494C306.438 212.494 329.075 235.132 329.075 263.056C329.075 290.979 306.438 313.617 278.514 313.617Z" fill="#35343C" stroke="#35343C" stroke-width="0.111737" stroke-miterlimit="10" stroke-linejoin="round"/>
<path d="M306.283 226.202L306.655 307.769H313.732L330.492 289.519L330.119 243.707L316.712 226.574L306.283 226.202Z" fill="black"/>
<path d="M302.314 322.155C324.235 313.273 340.152 292.497 341.972 267.798L342.178 267.676L341.851 266.751L293.051 273.996L292.535 274.073L292.633 274.584L301.635 321.786L301.75 322.384L302.314 322.155ZM278.514 326.687C283.56 326.687 288.471 326.099 293.179 324.988L293.33 325.27L293.782 324.994L294.263 324.7L293.883 323.788L293.697 323.834L271.19 281.709L270.955 281.269L270.515 281.503L229.804 303.065L229.26 303.353L229.653 303.826C241.185 317.724 258.804 326.687 278.514 326.687ZM223.907 230.359L223.697 230.696L223.708 230.707C218.101 240.185 214.883 251.246 214.883 263.056C214.883 275.368 218.38 286.863 224.298 296.576L224.631 297.122L225.081 296.667L257.725 263.669L258.076 263.313L257.721 262.961L224.968 230.55L225.031 230.446L225.034 230.441L224.182 229.917L224.179 229.923L223.907 230.359ZM292.929 201.266L292.191 200.635L291.909 200.837C287.59 199.912 283.108 199.424 278.514 199.424C258.75 199.424 241.091 208.436 229.434 222.484L229.041 222.958L229.586 223.245L270.545 244.833L270.996 245.071L271.225 244.615L292.929 201.266ZM301.062 204.529L301.069 204.538L292.424 251.633L292.329 252.146L292.846 252.218L341.462 259.052L342.074 259.138L342.03 258.522C340.261 233.555 324.032 212.496 301.638 203.756L299.946 203.096L301.062 204.529ZM278.514 338.816C236.673 338.816 202.754 304.897 202.754 263.056C202.754 221.214 236.673 187.296 278.514 187.296C320.355 187.296 354.274 221.214 354.274 263.056C354.274 304.897 320.356 338.816 278.514 338.816Z" fill="#F5F6FA" stroke="black"/>
<path d="M278.514 339.316C236.397 339.316 202.254 305.173 202.254 263.056C202.254 220.938 236.397 186.796 278.514 186.796C320.632 186.796 354.774 220.938 354.774 263.056C354.774 305.173 320.632 339.316 278.514 339.316ZM341.492 267.501L341.924 267.246L293.124 274.491L302.127 321.692C323.953 312.848 339.779 292.118 341.492 267.501ZM293.522 324.567L294.003 324.273L293.439 324.412L270.749 281.944L230.038 303.507C241.478 317.294 258.958 326.187 278.514 326.187C283.655 326.187 288.654 325.572 293.439 324.412L293.522 324.567ZM224.332 230.623L224.337 230.628C218.652 240.106 215.383 251.199 215.383 263.056C215.383 275.272 218.853 286.678 224.725 296.316L257.369 263.317L224.337 230.628L224.607 230.182L224.332 230.623ZM292.482 201.042L292.019 201.372C287.668 200.424 283.149 199.924 278.514 199.924C258.905 199.924 241.385 208.864 229.819 222.803L270.778 244.391L292.482 201.042ZM301.602 204.408L292.915 251.723L341.532 258.557C339.777 233.788 323.675 212.893 301.457 204.222L301.602 204.408Z" fill="#8B8888"/>
<path d="M293.439 324.412L294.003 324.273L293.522 324.567L293.439 324.412ZM293.439 324.412L270.749 281.944L230.038 303.507C241.478 317.294 258.958 326.187 278.514 326.187C283.655 326.187 288.654 325.572 293.439 324.412ZM224.337 230.628L224.332 230.623L224.607 230.182L224.337 230.628ZM224.337 230.628C218.652 240.106 215.383 251.199 215.383 263.056C215.383 275.272 218.853 286.678 224.725 296.316L257.369 263.317L224.337 230.628ZM278.514 339.316C236.397 339.316 202.254 305.173 202.254 263.056C202.254 220.938 236.397 186.796 278.514 186.796C320.632 186.796 354.774 220.938 354.774 263.056C354.774 305.173 320.632 339.316 278.514 339.316ZM341.492 267.501L341.924 267.246L293.124 274.491L302.127 321.692C323.953 312.848 339.779 292.118 341.492 267.501ZM292.482 201.042L292.019 201.372C287.668 200.424 283.149 199.924 278.514 199.924C258.905 199.924 241.385 208.864 229.819 222.803L270.778 244.391L292.482 201.042ZM301.602 204.408L292.915 251.723L341.532 258.557C339.777 233.788 323.675 212.893 301.457 204.222L301.602 204.408Z" fill="#8B8888" stroke="#15180F" stroke-width="0.062504" stroke-miterlimit="10" stroke-linejoin="round"/>
<path d="M258.352 275.146C257.664 272.809 259 270.357 261.337 269.668C263.674 268.979 266.127 270.316 266.815 272.653C267.504 274.989 266.168 277.443 263.83 278.131C261.493 278.819 259.04 277.483 258.352 275.146Z" fill="#393636"/>
<path d="M259.308 255.463C258.619 253.126 259.957 250.673 262.293 249.984C264.63 249.297 267.083 250.633 267.772 252.969C268.46 255.307 267.124 257.759 264.787 258.448C262.449 259.137 259.997 257.801 259.308 255.463Z" fill="#393636"/>
<path d="M277.961 248.531C277.273 246.194 278.609 243.742 280.946 243.053C283.283 242.364 285.736 243.701 286.424 246.038C287.113 248.374 285.777 250.827 283.439 251.516C281.102 252.204 278.649 250.868 277.961 248.531Z" fill="#393636"/>
<path d="M290.447 265.547C289.758 263.211 291.095 260.758 293.432 260.069C295.769 259.381 298.222 260.717 298.91 263.054C299.599 265.392 298.262 267.844 295.925 268.532C293.588 269.221 291.135 267.884 290.447 265.547Z" fill="#393636"/>
<path d="M278.007 281.859C277.318 279.522 278.654 277.069 280.992 276.381C283.329 275.692 285.782 277.029 286.469 279.366C287.158 281.703 285.822 284.156 283.484 284.844C281.148 285.533 278.696 284.196 278.007 281.859Z" fill="#393636"/>
<path d="M270.003 265.552C268.718 261.191 271.212 256.614 275.572 255.329C279.933 254.046 284.509 256.539 285.794 260.899C287.079 265.261 284.585 269.837 280.224 271.122C275.864 272.406 271.287 269.913 270.003 265.552Z" fill="#393636"/>
<path d="M278.514 355.752C329.709 355.752 371.21 314.251 371.21 263.056C371.21 211.861 329.709 170.359 278.514 170.359C227.319 170.359 185.818 211.861 185.818 263.056C185.818 314.251 227.319 355.752 278.514 355.752ZM278.514 339.317C236.397 339.317 202.253 305.173 202.253 263.056C202.253 220.938 236.397 186.794 278.514 186.794C320.632 186.794 354.775 220.938 354.775 263.056C354.775 305.173 320.632 339.317 278.514 339.317Z" fill="#2F2F2F" stroke="#15180F" stroke-width="0.124999" stroke-miterlimit="10" stroke-linejoin="round"/>
<path d="M432.598 57.4719C418.598 60.9719 404.598 64.4719 389.43 68.7219C374.264 72.9719 357.93 77.9719 346.514 81.6394C335.098 85.3057 328.598 87.6394 325.514 88.8894C322.43 90.1394 322.764 90.3057 323.514 90.9719C324.264 91.6394 325.43 92.8057 327.264 93.5557C329.098 94.3057 331.598 94.6394 333.014 95.1394C334.43 95.6394 334.764 96.3057 335.43 97.2219C336.098 98.1394 337.098 99.3057 338.014 100.139C338.93 100.972 339.764 101.472 340.18 101.722C340.598 101.972 340.598 101.972 354.18 102.722C367.764 103.472 394.93 104.972 413.014 106.056C431.098 107.139 440.098 107.806 449.098 108.472L432.598 57.4719Z" fill="#EAE7EA"/>
<path d="M312.86 102.671C312.063 103.036 302.688 102.098 295.548 101.307C288.408 100.514 283.503 99.8681 279.55 99.0868C275.598 98.3056 272.598 97.3893 270.348 96.5556C268.098 95.7218 266.598 94.9718 265.805 93.7218C265.014 92.4718 264.93 90.7218 265.68 88.9306C266.43 87.1393 268.014 85.3056 270.098 83.4718C272.18 81.6393 274.764 79.8056 278.305 77.8893C281.848 75.9718 286.348 73.9718 289.805 72.3893C293.264 70.8056 295.68 69.6393 296.598 69.3893C297.514 69.1393 296.93 69.8056 295.43 71.1393C293.93 72.4718 291.514 74.4718 289.514 76.4718C287.514 78.4718 285.93 80.4718 284.889 82.3468C283.848 84.2218 283.348 85.9718 283.264 87.6806C283.18 89.3893 283.514 91.0556 284.389 92.3468C285.264 93.6393 286.68 94.5556 289.055 95.5968C291.43 96.6393 294.764 97.8056 300.32 99.2218C305.878 100.639 313.658 102.306 312.86 102.671Z" fill="#3E4147"/>
<path d="M424.098 30.0981L449.098 108.348L424.098 30.0981Z" fill="#3E4147"/>
<path d="M424.098 30.0981L449.098 108.348" stroke="black" stroke-width="0.249999" stroke-miterlimit="10" stroke-linejoin="round"/>
<path d="M446.348 26.8481L475.848 112.848L446.348 26.8481Z" fill="#3E4147"/>
<path d="M446.348 26.8481L475.848 112.848" stroke="black" stroke-width="0.249999" stroke-miterlimit="10" stroke-linejoin="round"/>
<path d="M832.92 117.774C834.448 116.617 835.977 115.459 837.122 114.187C838.268 112.913 839.032 111.524 839.414 110.252C839.795 108.978 839.795 107.821 839.795 106.663" stroke="black" stroke-width="2.46499" stroke-miterlimit="10" stroke-linejoin="round"/>
<path d="M833.903 315.251C812.098 314.139 768.764 313.306 723.903 312.751C679.042 312.194 632.653 311.917 589.875 312.472C547.098 313.028 507.93 314.417 478.903 314.833C449.875 315.251 430.987 314.694 416.821 313.862C402.653 313.028 393.209 311.917 388.209 312.333C383.209 312.751 382.653 314.694 382.237 316.917C381.82 319.139 381.542 321.639 381.875 323.882C382.209 326.126 383.153 328.112 389.53 329.212C395.908 330.313 407.718 330.527 436.69 329.534C465.662 328.541 511.797 326.341 554.031 325.101C596.264 323.861 634.598 323.583 669.181 324.278C703.764 324.972 734.598 326.639 760.848 327.889C787.098 329.139 808.764 329.972 823.313 330.604C837.862 331.237 845.292 331.667 849.424 330.946C853.555 330.223 854.389 328.348 854.979 326.188C855.57 324.028 855.917 321.583 855.952 319.667C855.987 317.751 855.709 316.362 833.903 315.251Z" stroke="black" stroke-width="0.062504" stroke-miterlimit="10" stroke-linejoin="round"/>
<path d="M383.098 328.598C424.822 328.328 466.547 328.058 500.547 327.316C534.547 326.572 560.822 325.356 587.918 324.928C615.014 324.501 642.931 324.862 670.014 325.563C697.098 326.264 723.348 327.307 748.036 328.452C772.723 329.598 795.848 330.848 812.306 331.432C828.764 332.014 838.556 331.932 848.348 331.848" stroke="black" stroke-width="2.49999" stroke-miterlimit="10" stroke-linejoin="round"/>
<path d="M48.5979 264.972C40.4304 264.306 32.2641 263.639 25.7641 263.056C19.2641 262.472 14.4304 261.972 9.5979 261.472C10.0979 262.639 10.5979 263.806 11.7641 264.722C12.9304 265.639 14.7641 266.306 18.1804 266.806C21.5979 267.306 26.5979 267.639 30.8479 267.889C35.0979 268.139 38.5979 268.306 40.5979 268.389C42.5979 268.472 43.0979 268.472 44.1804 267.889C45.2642 267.306 46.9304 266.139 48.5979 264.972Z" fill="#AFB2AF" stroke="black" stroke-width="0.062504" stroke-miterlimit="10" stroke-linejoin="round"/>
<path d="M185.098 204.598C157.709 204.446 130.32 204.292 106.903 204.354C83.4867 204.417 64.0417 204.694 49.1804 204.833C34.3204 204.972 24.0417 204.972 13.7642 204.972" stroke="black" stroke-width="0.062504" stroke-miterlimit="10" stroke-linejoin="round"/>
<path d="M273.764 118.306C253.209 119.694 232.653 121.083 211.82 122.611C190.987 124.139 169.875 125.806 153.625 127.333C137.375 128.861 125.987 130.251 117.93 131.083C109.875 131.917 105.153 132.194 101.959 131.501C98.7642 130.806 97.0979 129.139 95.5704 127.751C94.0417 126.361 92.6529 125.251 91.2642 124.139C100.709 122.472 110.153 120.806 122.375 119.694C134.598 118.583 149.598 118.028 165.292 117.472C180.987 116.917 197.375 116.361 210.848 115.528C224.32 114.694 234.875 113.583 241.82 113.583C248.764 113.583 252.098 114.694 256.82 115.667C261.542 116.639 267.653 117.472 273.764 118.306Z"/>
<path d="M1215.1 257.472C1214.93 261.806 1214.76 266.139 1213.93 271.806C1213.1 277.472 1211.6 284.472 1210.43 289.306C1209.26 294.139 1208.43 296.806 1207.6 299.472C1207.76 294.306 1207.93 289.139 1207.76 283.472C1207.6 277.806 1207.1 271.639 1206.93 266.806C1206.76 261.972 1206.93 258.472 1207.35 256.556C1207.76 254.639 1208.43 254.306 1209.1 254.472C1209.76 254.639 1210.43 255.306 1211.43 255.889C1212.43 256.472 1213.76 256.972 1215.1 257.472Z" fill="#2E2D35"/>
<path d="M1080.85 142.784C1085.22 147.368 1089.6 151.952 1095.59 157.159C1101.58 162.368 1109.18 168.202 1115.27 172.733C1121.37 177.264 1125.95 180.493 1130.17 183.409C1134.39 186.327 1138.24 188.931 1142.1 191.534" stroke="black" stroke-width="2.49999" stroke-miterlimit="10" stroke-linejoin="round"/>
<path d="M1207.72 247.472C1194.6 247.472 1181.47 247.472 1167.2 247.264C1152.93 247.056 1137.51 246.639 1128.56 246.222C1119.6 245.806 1117.1 245.389 1114.6 244.972" stroke="#323535" stroke-width="0.062504" stroke-miterlimit="10" stroke-linejoin="round"/>
<path d="M1226.13 315.223C1222.79 314.911 1219.46 314.598 1215.34 313.973C1211.23 313.348 1206.33 312.411 1193.83 310.796C1181.33 309.182 1161.23 306.889 1140.27 304.557C1119.31 302.223 1097.5 299.848 1075.69 297.473C1075.1 302.598 1074.52 307.723 1073.55 312.921C1072.58 318.119 1071.23 323.389 1070.14 327.327C1069.04 331.264 1068.21 333.869 1067.38 336.473C1071.65 336.161 1075.92 335.848 1081.49 335.119C1087.06 334.389 1093.94 333.244 1101.13 332.307C1108.31 331.369 1115.81 330.639 1122.69 330.119C1129.56 329.598 1135.81 329.286 1143.26 328.661C1150.71 328.036 1159.35 327.098 1166.7 326.473C1174.04 325.848 1180.08 325.536 1185.34 325.171C1190.6 324.807 1195.08 324.389 1199.54 324.182C1203.99 323.973 1208.42 323.973 1212.06 323.401C1215.71 322.827 1218.57 321.682 1220.58 320.536C1222.58 319.389 1223.73 318.244 1224.51 317.358C1225.29 316.473 1225.71 315.848 1226.13 315.223Z"/>
<path d="M1223.42 315.042C1220.57 315.251 1213.63 314.694 1201.96 313.376C1190.29 312.056 1173.9 309.972 1158.21 308.167C1142.51 306.361 1127.51 304.833 1115.78 303.862C1104.04 302.889 1095.57 302.472 1091.06 301.847C1086.54 301.222 1085.99 300.389 1086.2 299.487C1086.4 298.583 1087.38 297.611 1089.53 296.986C1091.68 296.361 1095.01 296.083 1105.15 296.292C1115.29 296.501 1132.24 297.194 1147.51 298.097C1162.79 299.001 1176.4 300.111 1184.74 301.083C1193.07 302.056 1196.13 302.889 1200.01 304.069C1203.9 305.251 1208.63 306.778 1212.72 308.306C1216.82 309.833 1220.29 311.361 1222.65 312.611C1225.01 313.861 1226.26 314.833 1223.42 315.042Z" stroke="#6E6E6E" stroke-width="0.062504" stroke-miterlimit="10" stroke-linejoin="round"/>
<path d="M11.2992 290.563C10.9867 291.708 11.1255 294.069 11.2642 295.771C11.403 297.472 11.5417 298.514 12.133 299.243C12.723 299.972 13.7642 300.389 17.9305 301.327C22.098 302.264 29.3892 303.722 41.8205 305.876C54.2505 308.028 71.8205 310.876 82.7917 312.577C93.7642 314.278 98.1392 314.833 104.459 315.493C110.778 316.153 119.042 316.917 124.667 317.299C130.292 317.681 133.278 317.681 134.805 317.612C136.334 317.542 136.403 317.403 136.647 317.056C136.889 316.708 137.305 316.153 138 314.764C138.695 313.376 139.667 311.153 140.049 308.757C140.43 306.362 140.223 303.792 139.389 301.639C138.555 299.487 137.098 297.751 135.813 296.501C134.528 295.251 133.417 294.487 132.41 294.034C131.403 293.583 130.5 293.444 113.799 292.507C97.098 291.569 64.598 289.833 47.8267 289.034C31.0555 288.237 30.0142 288.376 29.1805 288.618C28.348 288.861 27.723 289.208 27.063 289.452C26.403 289.694 25.7092 289.833 24.2855 289.972C22.8617 290.112 20.7092 290.251 18.7292 290.181C16.7505 290.111 14.9455 289.833 13.6605 289.659C12.3755 289.487 11.6117 289.417 11.2992 290.563Z" fill="#F5F6FA"/>
<path d="M11.2992 290.563C10.9867 291.708 11.1255 294.069 11.2642 295.771C11.403 297.472 11.5417 298.514 12.133 299.243C12.723 299.972 13.7642 300.389 17.9305 301.327C22.098 302.264 29.3892 303.722 41.8205 305.876C54.2505 308.028 71.8205 310.876 82.7917 312.577C93.7642 314.278 98.1392 314.833 104.459 315.493C110.778 316.153 119.042 316.917 124.667 317.299C130.292 317.681 133.278 317.681 134.805 317.612C136.334 317.542 136.403 317.403 136.647 317.056C136.889 316.708 137.305 316.153 138 314.764C138.695 313.376 139.667 311.153 140.049 308.757C140.43 306.362 140.223 303.792 139.389 301.639C138.555 299.487 137.098 297.751 135.813 296.501C134.528 295.251 133.417 294.487 132.41 294.034C131.403 293.583 130.5 293.444 113.799 292.507C97.098 291.569 64.598 289.833 47.8267 289.034C31.0555 288.237 30.0142 288.376 29.1805 288.618C28.348 288.861 27.723 289.208 27.063 289.452C26.403 289.694 25.7092 289.833 24.2855 289.972C22.8617 290.112 20.7092 290.251 18.7292 290.181C16.7505 290.111 14.9455 289.833 13.6605 289.659C12.3755 289.487 11.6117 289.417 11.2992 290.563Z" stroke="black" stroke-width="0.062504" stroke-miterlimit="10" stroke-linejoin="round"/>
<path d="M509.911 151.743C507.514 151.014 503.243 149.868 497.723 148.983C492.202 148.097 485.431 147.472 480.014 147.108C474.598 146.743 470.536 146.639 467.514 147.159C464.493 147.681 462.514 148.827 461.368 150.233C460.223 151.639 459.911 153.306 459.911 154.868C459.911 156.431 460.223 157.889 460.796 159.296C461.368 160.702 462.202 162.056 463.243 163.306C464.286 164.556 465.536 165.702 467.202 166.534C468.868 167.368 470.952 167.889 474.337 168.306C477.723 168.722 482.411 169.034 488.036 169.087C493.661 169.139 500.223 168.931 504.598 168.514C508.973 168.097 511.161 167.472 512.983 166.743C514.806 166.014 516.264 165.181 517.254 164.191C518.243 163.202 518.764 162.056 518.764 160.858C518.764 159.659 518.243 158.409 517.462 157.316C516.681 156.222 515.639 155.284 514.911 154.608C514.181 153.931 513.764 153.514 513.296 153.149C512.827 152.784 512.306 152.472 509.911 151.743Z" stroke="#4D5050" stroke-width="0.050001" stroke-miterlimit="10" stroke-linejoin="round"/>
<path d="M511.786 158.722C506.161 158.097 500.536 157.472 495.274 157.212C490.014 156.952 485.118 157.056 481.108 157.264C477.098 157.472 473.973 157.784 470.848 158.097C471.993 159.452 473.139 160.806 474.286 161.847C475.431 162.889 476.577 163.618 478.504 164.243C480.431 164.868 483.139 165.389 486.368 165.649C489.598 165.909 493.348 165.909 496.993 165.702C500.639 165.493 504.181 165.077 506.577 164.712C508.973 164.347 510.223 164.034 511.004 163.306C511.786 162.577 512.098 161.431 512.149 160.597C512.202 159.764 511.993 159.243 511.786 158.722Z"/>
  </symbol>
</svg>