<svg width="1704" height="862" viewBox="0 0 1704 862" fill="none" xmlns="http://www.w3.org/2000/svg">
<path d="M1220.33 1.99997C1203.8 4.66664 1187.4 9.59997 1166.73 18.1333C1147.67 25.8667 1146.33 26.2667 1146.33 23.6C1146.33 20.5333 1142.07 17.7333 1134.47 15.4667C1122.33 11.8667 1123.27 11.0667 1112.07 34.2667C1088.07 84.5333 950.467 380.267 877 539.6C861.933 572.133 849.4 598.667 849 598.667C848.6 598.667 831.267 561.6 810.467 516.267C723.267 327.067 579.667 18.6667 577.533 16.2667C576.867 15.3333 561.667 18.9333 558.067 20.8C555.933 21.8667 554.333 23.6 554.333 24.8C554.333 28.8 550.333 28 532.6 20.8C462.333 -8.00003 401.267 -1.46671 349.8 40.5333C335.533 52.2667 304.467 83.4667 270.067 120.667C211 184.533 178.867 209.467 140.333 220.933C129.667 224.133 126.067 224.533 107 224.533C89.2667 224.667 83.2667 224.133 71.6667 221.6C55.5333 217.867 35.4 210.933 15.9333 202.133C4.33333 196.933 -3 194.667 -3 196.533C-3 198.8 45.9333 306.8 115.4 458C127.8 485.067 148.6 530.4 161.667 558.667C174.6 586.933 185.933 611.333 187 612.8C189.267 616.267 226.067 634.667 238.333 638.533C253.267 643.2 262.2 644.267 292.333 644.933C326.467 645.733 333.533 644.667 354.067 635.867C389.933 620.533 411.267 602.667 471 537.333C513.8 490.533 537.533 468.267 562.067 451.467C589.8 432.667 612.2 425.333 642.6 425.333C672.733 425.333 701.4 432.8 734.333 449.067L752.333 458L792.733 545.867L833.267 633.867L829.933 641.2C828.2 645.333 812.733 678.933 795.667 716C749 817.333 734.067 850.933 735.267 852.133C737.4 854.267 757.4 858.533 759.667 857.333C762.333 855.867 765.133 850.133 811 750.4C831.533 705.867 848.6 669.467 849 669.333C849.4 669.333 869.133 711.467 892.867 763.067C916.6 814.533 937.133 857.867 938.467 859.2C940.867 861.733 941 861.733 951.133 859.2C956.733 857.867 962.2 856.133 963.267 855.333C965.4 853.733 961.667 845.067 911 734.667C894.333 698.4 877.133 660.8 872.867 651.333L864.867 634L905.933 544.667L947 455.333L964.467 446.533C997.4 430 1027.13 422.267 1057.67 422.267C1080.2 422.267 1095.8 425.867 1114.87 435.2C1147.67 451.2 1174.6 474.933 1233 538.667C1287.67 598.267 1310.6 617.467 1345.4 632.533C1366.73 641.733 1367.53 641.867 1401.67 641.867C1447 641.867 1459.13 639.2 1493.53 621.6L1513.4 611.333L1552.6 526C1614.2 391.733 1625 368.133 1651.27 310.667C1677.27 253.733 1703.67 194.933 1703.67 193.867C1703.67 191.867 1696.07 194.267 1681.8 200.533C1612.33 231.2 1564.33 229.733 1512.6 194.933C1491.8 180.933 1469.67 160 1421.67 108.667C1386.2 70.5333 1362.6 47.2 1348.33 35.7333C1329.53 20.6667 1305.8 9.19997 1282.73 3.86664C1266.87 0.266636 1236.6 -0.666697 1220.33 1.99997ZM1257.4 3.46664C1258.87 4.93331 1252.07 21.7333 1230.33 70.1333L1223 86.2667L1206.33 87.0667C1178.87 88.5333 1144.2 97.0667 1123.4 107.467C1115.27 111.6 1110.33 113.067 1110.33 111.333C1110.33 110 1126.87 73.6 1133.13 60.9333C1147.13 33.0667 1153.8 27.4667 1187 16.2667C1208.07 9.33331 1254.6 0.79997 1257.4 3.46664ZM482.333 11.4667C503.4 15.7333 521.267 21.4667 535.133 28.1333C548.733 34.5333 555.667 42 564.733 59.7333C571.933 73.6 589 111.6 589 113.467C589 115.733 584.867 114.667 575.933 110.133C565.4 104.933 551 100 531.667 95.2C521.133 92.6667 512.867 91.6 497.933 91.0667C485.8 90.5333 477.933 89.7333 477.267 88.8C474.467 84.2667 445.4 18.1333 443 10.8C442.467 8.93331 442.6 7.33331 443.533 6.79997C445.667 5.33331 463.533 7.59997 482.333 11.4667ZM1379.53 72.9333C1409.27 102.667 1417 111.867 1417 117.2C1417 119.2 1414.73 126.533 1411.8 133.467C1405.8 148.133 1386.87 188.8 1384.2 192.667C1382.47 195.067 1380.47 193.333 1350.73 163.067C1318.87 130.8 1312.6 125.2 1310.33 127.467C1309.27 128.533 1278.2 194.133 1275.53 201.067C1274.87 202.667 1273.53 204.4 1272.47 204.8C1271.27 205.2 1265 202.267 1258.33 198C1235.53 184 1220.73 177.6 1197 171.6C1189.8 169.867 1189.67 169.733 1189.93 165.2C1190.2 159.467 1197.8 141.333 1212.33 111.333L1223.67 88H1230.2C1243.13 88 1268.73 98.1333 1294.73 113.6C1303.4 118.667 1310.73 122.667 1311 122.4C1311.27 122.133 1315.8 112.8 1321 101.6C1340.6 59.2 1347.53 46.6667 1351.27 46.6667C1352.33 46.6667 1365.13 58.5333 1379.53 72.9333ZM359.267 63.3333C363.133 70.6667 371.533 87.8667 377.8 101.6L389.4 126.533L392.867 124.133C415.4 108.267 456.2 90.6667 470.467 90.6667C474.867 90.6667 475.8 91.3333 478.733 96.4C484.067 105.467 504.333 149.067 508.2 159.867C511.8 170 511.933 173.333 508.467 173.333C507.4 173.333 499.4 175.467 490.733 178.133C473.667 183.2 461.4 188.933 442.467 200.667C435.8 204.8 429.4 208 428.333 207.733C427.133 207.467 418.733 191.067 408.467 168.8C398.6 147.733 390.2 130 389.8 129.733C388.067 128 379.667 135.6 350.2 165.467C333 182.933 318.467 197.333 317.8 197.333C316.6 197.333 298.2 159.333 289.8 139.6C282.067 121.467 282.067 118.4 289.133 109.067C298.867 96.5333 347.4 49.0667 349.933 49.6C351.4 49.8667 355.133 55.3333 359.267 63.3333ZM1177 168.8C1181 169.6 1181.27 170 1180.6 174.133C1180.2 176.533 1173.4 192.533 1165.67 209.6C1157.8 226.667 1150.33 242.933 1149.13 245.6C1147.13 250.267 1146.6 250.533 1139 251.333C1097.67 255.467 1083.53 258.8 1051.27 271.867C1041.8 275.733 1033.93 278.667 1033.67 278.4C1033.13 277.867 1044.6 252 1059.13 220.667L1069.67 198L1077 194.4C1100.07 183.067 1136.33 172.133 1159 169.6C1164.87 168.933 1170.33 168.267 1171.13 168.133C1171.93 168.133 1174.6 168.4 1177 168.8ZM547.667 173.467C569.267 176.8 594.067 184.4 615.933 194.133L629.933 200.4L641.667 225.867C657.933 260.933 666.333 280.4 665.667 281.067C665.4 281.467 657.667 278.667 648.6 274.933C619.133 262.8 603 258.667 571.8 255.467C562.067 254.4 553.533 253.067 553 252.4C551.8 251.067 532.333 208.933 524.067 189.6C520.867 182 518.467 174.933 518.867 173.867C519.8 171.6 534.733 171.333 547.667 173.467ZM1514.33 203.867C1534.2 216 1540.47 218.667 1563.4 224.4C1573.4 226.8 1579.53 229.067 1579.13 229.867C1578.73 230.667 1571.67 246.267 1563.27 264.667C1545.4 303.6 1543.93 307.733 1546.47 309.6C1548.73 311.067 1566.6 309.867 1582.33 307.2C1597.93 304.533 1613.67 299.867 1633.8 292C1651.93 284.933 1654.33 284.267 1654.33 287.067C1654.33 293.733 1623.93 354.8 1615.8 364.533C1612.6 368.4 1591 378.133 1573.93 383.2C1545 392 1512.87 396.4 1508.73 392.267C1506.47 390 1509.67 380.8 1523.93 348.8C1538.73 315.333 1540.47 310.667 1538.2 309.2C1537.13 308.533 1534.73 308 1532.73 308C1523.27 308 1492.33 295.333 1473 283.733C1467.53 280.4 1461.13 276.667 1458.73 275.467C1454.6 273.333 1454.33 273.467 1452.47 276.267C1451.4 278 1445.13 291.067 1438.6 305.333C1432.07 319.6 1424.2 336.267 1421.13 342.4L1415.53 353.467L1411.67 350.667C1409.53 349.2 1394.2 333.867 1377.53 316.667C1360.87 299.467 1346.47 285.2 1345.4 284.8C1343.93 284.267 1340.07 291.2 1330.73 310.4C1309.53 354.4 1307.4 358.667 1306.07 359.6C1305.27 360 1289.27 344.667 1270.33 325.467C1251.53 306.4 1235.67 290.667 1234.87 290.667C1234.2 290.667 1230.47 298 1226.47 307.067C1216.47 329.333 1197.27 370.8 1196.47 371.733C1196.07 372 1189.67 368.533 1182.2 364C1159.8 350.267 1132.33 338.667 1122.07 338.667C1119.53 338.667 1116.33 337.867 1115 336.8C1112.73 335.2 1112.6 334.4 1114.07 328.267C1114.87 324.533 1121 309.6 1127.8 295.067C1134.47 280.533 1141.53 265.2 1143.53 260.933L1147 253.067L1153.4 253.867C1172.07 256.4 1196.6 266 1216.73 278.8C1224.87 283.867 1232.07 288 1233 288C1234.33 288 1246.33 264 1264.73 224.4C1268.2 216.933 1271.67 210.8 1272.47 210.667C1275.53 210.533 1293.67 226.933 1317.8 251.733L1343.27 277.733L1346.73 272.533C1348.6 269.733 1357.13 252.533 1365.8 234.267C1374.47 216.133 1382.2 201.333 1383.13 201.333C1384.07 201.333 1396.07 213.067 1409.93 227.467C1431.93 250.4 1451.93 269.333 1454.2 269.333C1454.87 269.333 1461.93 254.667 1486.33 202.267C1491.27 191.867 1492.07 190.8 1494.33 192C1495.8 192.8 1504.73 198.133 1514.33 203.867ZM227.133 233.2C237 254 245.267 271.333 245.667 271.733C247.133 273.2 258.2 263.067 286.6 234.133C306.733 213.6 317.267 203.733 318.2 204.667C318.867 205.333 326.067 219.733 334.2 236.667C351.133 271.867 355.4 280 356.867 280C357.533 280 368.067 269.333 380.467 256.4C400.733 235.333 424.6 213.333 427.533 213.333C428.067 213.333 436.6 230.267 446.467 250.933C456.333 271.467 465.267 289.067 466.467 289.733C468.2 290.8 471.4 289.333 481.4 283.067C496.333 273.467 502.467 270.133 514.067 265.733C523.133 262.4 546.733 256 550.467 256C552.067 256 556.467 264 565 282.267C581.667 317.6 586.333 329.067 586.333 334.933C586.333 340.267 586.067 340.533 575 342C562.2 343.733 540.067 353.467 518.2 366.8C511.133 371.067 505 374.667 504.6 374.667C503.267 374.667 496.333 360.4 481 326C473.4 309.067 466.733 294.8 466.067 294C465.4 293.2 451.267 306.667 429.8 328.533L394.733 364.267L391.533 358.533C389.8 355.333 381.4 338.4 373 320.8C364.6 303.333 356.867 288.667 355.933 288.267C354.867 287.867 341.133 300.8 320.6 321.867C302.067 340.667 286.333 356 285.533 356C284.733 356 282.2 352 279.933 346.933C274.6 335.2 250.733 284.267 248.733 280.267C247.933 278.667 246.2 277.333 245 277.333C243.8 277.333 237.667 280.4 231.533 284.267C211 296.8 178.333 310.667 169.267 310.667C167.133 310.667 164.467 311.467 163.133 312.4C161 314 161 314.533 164.067 322.667C165.933 327.467 170.467 338.267 174.333 346.667C182.6 365.067 191.133 386 192.333 390.933C193.667 396.267 189.533 397.867 177.267 396.8C143 393.6 93.2667 377.333 84.0667 366.133C76.7333 357.2 48.7333 301.467 46.8667 292C46.3333 289.467 46.6 288 47.5333 288C48.3333 288 56.6 290.933 65.9333 294.667C75.4 298.267 86.8667 302.4 91.6667 303.867C117.4 311.733 153.4 316 155.133 311.467C155.933 309.333 149.8 294.4 132.733 257.467C126.2 243.333 121.133 231.467 121.267 231.333C121.533 231.2 129.533 229.2 139 226.8C158.6 221.867 171.4 216.267 191.667 203.6C199.4 198.8 206.467 194.933 207.533 195.067C208.467 195.2 217.4 212.4 227.133 233.2ZM1105.8 337.6C1106.33 338.133 1098.6 356.133 1088.73 377.6L1070.6 416.667L1051.53 417.467C1020.07 418.8 1001.93 423.333 964.733 439.2C960.2 441.067 959.667 441.067 959.667 439.333C959.667 436.533 976.867 398.4 986.733 379.333L995 363.333L1005 358.4C1022.87 349.6 1049.13 341.333 1069.67 338C1081.8 336.133 1103.93 335.867 1105.8 337.6ZM638.333 342.667C654.067 345.6 679.4 353.867 693.533 360.667C701.667 364.533 704.467 366.667 707.267 371.067C713.667 381.2 741.8 442.4 740.6 443.6C740.2 443.867 732.6 441.067 723.533 437.467C693.267 425.333 668.867 420 642.733 420H629.4L611.8 381.867C602.2 360.933 594.2 343.2 593.933 342.4C593.133 338.133 615.667 338.267 638.333 342.667ZM1430.47 364.133C1452.33 377.333 1472.87 386.533 1488.87 390.133C1501.13 392.933 1502.33 393.333 1502.33 394.8C1502.33 395.6 1494.87 412.8 1485.67 432.933C1476.47 453.2 1468.6 471.2 1468.07 473.067L1467.27 476.4L1483.8 475.6C1511.27 474.133 1528.87 469.733 1563.53 455.467C1571.8 452 1578.87 449.467 1579.27 449.733C1579.53 450.133 1573.4 464.4 1565.53 481.467C1557.8 498.667 1549.53 516.667 1547.4 521.6L1543.4 530.4L1527.27 537.333C1504.6 546.933 1482.33 554.4 1469.4 556.667C1455.13 559.2 1429.67 560.8 1428.73 559.2C1428.33 558.533 1434.87 542.933 1443.27 524.667C1463 481.467 1464.2 478.533 1462.2 477.2C1461.27 476.667 1453 474 1443.8 471.333C1422.73 465.067 1413.53 460.933 1394.6 449.067C1381.67 440.933 1379.27 439.867 1377.67 441.467C1376.6 442.533 1368.87 457.733 1360.47 475.467C1344.47 508.933 1340.07 517.333 1338.47 517.333C1334.6 517.333 1314.6 498.4 1286.6 468.267L1267.53 447.867L1262.07 459.6C1246.2 494.133 1231.53 522.667 1229.93 522.667C1228.87 522.667 1218.73 512.933 1207.27 500.933C1195.93 489.067 1180.33 473.733 1172.73 466.8L1158.73 454.4L1176.2 415.867C1189.13 387.467 1194.2 377.333 1195.93 377.333C1199.8 377.333 1213.93 390 1241.27 417.867C1255.67 432.533 1267.8 444.4 1268.07 444C1269.27 442.8 1279.27 421.867 1292.33 393.6C1299.53 378 1305.93 365.467 1306.6 365.6C1307.13 365.867 1319.53 378.533 1333.93 393.867C1357.93 419.333 1375.53 436 1378.07 436C1378.6 436 1382.87 427.067 1387.53 416.267C1404.6 377.6 1414.6 357.333 1417 357.333C1418.2 357.333 1424.33 360.4 1430.47 364.133ZM291.4 372.933C295 380.133 303.133 397.867 309.667 412.267C316.2 426.8 321.933 438.667 322.6 438.667C325.267 438.667 344.067 420.533 367.667 395.467C381.8 380.267 393.933 368.4 394.467 368.933C395 369.6 402.6 385.333 411.4 404C420.067 422.667 428.333 440.267 429.8 443.067L432.2 448.133L460.333 419.467C488.467 390.8 501.133 379.6 504.6 380.267C505.533 380.533 514.2 397.867 523.8 418.933L541.133 457.067L534.067 463.467C530.2 466.933 514.6 482.267 499.4 497.733C480.467 516.8 471.133 525.467 469.8 524.933C467.533 524 459 507.6 444.067 475.333C438.6 463.6 433.667 453.467 433 452.8C432.2 452 427.133 456.533 420.067 464.133C398.6 487.333 371 514.8 366.6 517.6C362.733 520 361.8 520.133 360.333 518.533C358.333 516.533 353.4 506.8 334.867 468.267C328.067 454.267 322.067 442.667 321.533 442.667C321.133 442.667 314.333 446.667 306.467 451.6C288.067 463.2 277.533 467.867 255.8 474.533C246.067 477.467 237.667 480.133 237.4 480.533C236.467 481.467 237.8 484.933 253.8 520C269.267 554.267 271.667 559.733 271.667 561.733C271.667 563.6 243.267 562 229.267 559.333C215.933 556.8 193.533 549.2 173.133 540.267C161.267 535.067 157.4 532.667 155.933 529.733C150.867 520.267 121 454 121.267 453.067C121.533 452.533 128.333 454.8 136.333 458.133C158.733 467.333 175.8 472.933 187.933 475.333C202.067 478.133 233 479.6 233 477.6C233 476.8 225.533 459.733 216.467 439.6C207.267 419.6 199.4 401.6 199 399.733C198.2 396.4 198.467 396.267 207.933 394C228.067 389.067 247.933 380.4 270.2 366.8C276.333 363.067 282.2 360 283.267 360C284.2 360 287.933 365.867 291.4 372.933ZM1352.6 529.467C1373.8 543.2 1400.6 554.8 1415.67 556.8C1426.33 558.267 1426.33 557.867 1418.33 576.933C1407.4 603.333 1394.6 629.6 1390.73 633.6C1388.87 635.6 1385.67 637.6 1383.8 638C1379.13 638.933 1360.2 633.467 1346.07 626.933C1337.27 622.8 1304.87 604.267 1302.47 601.867C1301.8 601.333 1338.6 521.333 1339.53 521.333C1339.8 521.333 1345.67 524.933 1352.6 529.467ZM380.2 565.2C390.2 586.8 398.2 604.667 397.933 604.8C396.467 606.267 366.333 623.867 359.267 627.6C348.867 632.8 324.2 641.333 319.533 641.333C313.133 641.333 308.333 636.667 301.933 624.533C294.733 610.4 275.667 566.133 275.667 563.467C275.667 561.333 277.533 560.667 286.867 559.333C301 557.333 326.733 546 348.2 532C354.867 527.733 360.733 524.533 361.267 525.067C361.667 525.6 370.2 543.6 380.2 565.2Z" fill="url(#paint0_linear_146_6)"/>
<defs>
<linearGradient id="paint0_linear_146_6" x1="850.335" y1="0.467285" x2="850.335" y2="861.1" gradientUnits="userSpaceOnUse">
<stop offset="0.310378" stop-color="#1A2C70"/>
<stop offset="1" stop-color="white" stop-opacity="0.75"/>
</linearGradient>
</defs>
</svg>
